<svg fill="none" height="45" viewBox="0 0 195 45" width="195" xmlns="http://www.w3.org/2000/svg"><path d="m.941772 42.1526c-.28125-.1875-.421875-.3906-.421875-.6094-.03125-.2187.015625-.4375.140625-.6562.125-.25.3125-.5.562498-.75.25-.2188.54688-.7813.89063-1.6875.34375-.875.70312-1.9375 1.07812-3.1875.40625-1.2813.79688-2.6719 1.17188-4.1719.40625-1.5.78125-2.9688 1.125-4.4063s.64062-2.7656.89062-3.9843c.25-1.2188.4375-2.1875.5625-2.9063.15625-.875.32813-1.8281.51563-2.8594.15625-.9062.32812-1.9531.51562-3.1406.1875-1.2187.35938-2.5625.51563-4.03124l3.74995-1.6875c.5313-.25.9063-.1875 1.125.1875.2188.34375.2188 1.07813 0 2.20314-.0937.5625-.2656 1.4844-.5156 2.7656-.25 1.25-.5469 2.6406-.8906 4.1719-.3125 1.5-.6563 3.0469-1.0313 4.6406-.3437 1.5625-.6875 2.9531-1.0312 4.1719-.3125 1.1562-.67188 2.4844-1.07813 3.9844-.71875 2.5625-1.71875 6.0625-3 10.5.4375.75 1.25 1.125 2.4375 1.125 1.3125 0 2.82813-.5 4.54683-1.5 1.75-1 3.4375-2.5 5.0625-4.5s3.0469-4.5 4.2657-7.5c1.25-3.0313 2.0312-6.5625 2.3437-10.5938.1563-2.1875.0469-4.1094-.3281-5.7656-.375-1.6563-.9531-3.04689-1.7344-4.17189-.75-1.125-1.6875-1.96875-2.8125-2.53125-1.0937-.5625-2.3125-.84375-3.6562-.84375-3.1563 0-6.4219 1.3125-9.7969 3.9375l-.23438-3.89062c.8125-.90625 1.73438-1.59375 2.76563-2.0625 1.0625-.5 2.04685-.875 2.95315-1.125 1.0625-.281252 2.1406-.437502 3.2343-.468752 2 0 3.9219.390622 5.7657 1.171872 1.875.75 3.4843 1.90625 4.8281 3.46875 1.375 1.5625 2.4219 3.53125 3.1406 5.90624.7188 2.3438.9688 5.0938.75 8.25-.125 1.8125-.5 3.7031-1.125 5.6719-.5937 1.9375-1.3906 3.8437-2.3906 5.7187-.9688 1.875-2.125 3.6563-3.4688 5.3438-1.3437 1.6875-2.8125 3.1562-4.4062 4.4062-1.5938 1.2813-3.2969 2.2813-5.1094 3-1.8125.75-3.68748 1.125-5.62498 1.125-.59375-.0312-1.23437-.1406-1.92187-.3281-.59375-.1562-1.26563-.4219-2.01563-.7969s-1.53125-.9062-2.343748-1.5937zm53.821828-15.7969c-.9375 1.375-2 2.7188-3.1875 4.0313-1.1875 1.2812-2.4531 2.4375-3.7968 3.4687-1.3125 1-2.6719 1.8125-4.0782 2.4375-1.375.625-2.7187.9375-4.0312.9375-.6875 0-1.4375-.1719-2.25-.5156-.7813-.3125-1.5-.8125-2.1563-1.5-.6562-.6875-1.1875-1.5781-1.5937-2.6719-.375-1.0937-.4844-2.4219-.3281-3.9844.125-1.2812.5156-2.625 1.1718-4.0312.6875-1.4375 1.5157-2.75 2.4844-3.9375 1-1.1875 2.1094-2.1719 3.3281-2.9531 1.25-.7813 2.5-1.1719 3.75-1.1719 1.1875 0 2.0469.2969 2.5782.8906.5312.5938.7656 1.3281.7031 2.2031-.0938.9688-.375 1.8594-.8438 2.6719-.4375.8125-.9687 1.5469-1.5937 2.2031-.625.6563-1.2969 1.25-2.0156 1.7813-.6875.5312-1.3438 1.0156-1.9688 1.4531-.6875.4688-1.3437.9219-1.9687 1.3594-.625.4062-1.1719.7812-1.6407 1.125.0313.7812.1719 1.4375.4219 1.9687.25.5313.5625.9688.9375 1.3125.375.3125.7969.5469 1.2656.7032.5.125 1 .1875 1.5.1875 1.0625 0 2.1719-.3282 3.3282-.9844 1.1562-.6875 2.2812-1.5 3.375-2.4375 1.125-.9688 2.1562-1.9688 3.0937-3 .9688-1.0313 1.7656-1.9219 2.3906-2.6719.2188-.25.4375-.3906.6563-.4219.25-.0625.4375-.0312.5625.0938.1562.0937.2344.2812.2344.5625 0 .25-.1094.5469-.3282.8906zm-12-7.2187c-.375 0-.8281.1875-1.3593.5625-.5.375-1 .9218-1.5 1.6406-.5.6875-.9688 1.5469-1.4063 2.5781-.4375 1-.7656 2.1563-.9844 3.4688.375-.2813.7813-.5625 1.2188-.8438.4375-.3125.875-.6406 1.3125-.9844 1.3437-1.0312 2.2812-1.9375 2.8125-2.7187.5312-.7813.8281-1.4531.8906-2.0156.0625-.5938 0-1.0157-.1875-1.2657-.1875-.2812-.4531-.4218-.7969-.4218zm35.0719 7.6406c-.4375.625-1 1.4062-1.6875 2.3437-.6875.9063-1.4062 1.8282-2.1562 2.7657-.7188.9062-1.4375 1.75-2.1563 2.5312-.6875.75-1.2656 1.2813-1.7344 1.5938-.3125.1875-.6718.3437-1.0781.4687-.4062.125-.8281.2031-1.2656.2344-.4063.0312-.7969 0-1.1719-.0938-.375-.0625-.7031-.1875-.9844-.375-.2812-.2187-.5156-.5312-.7031-.9375-.1562-.3437-.3125-.7968-.4687-1.3593-.125-.5625-.1719-1.2657-.1407-2.1094-.75 1.25-1.5781 2.2187-2.4843 2.9062-.9063.6563-1.7657 1.1407-2.5782 1.4532-.9375.3437-1.875.5468-2.8125.6093-.4375 0-.9062-.1562-1.4062-.4687-.5-.2813-.9219-.7344-1.2656-1.3594-.3438-.6562-.5625-1.4844-.6563-2.4844-.0937-1.0312.0313-2.25.375-3.6562.4375-1.9063 1.125-3.6406 2.0625-5.2031.9688-1.5625 2.0156-2.8907 3.1406-3.9844 1.125-1.125 2.2344-1.9688 3.3282-2.5313 1.0937-.5625 2-.8125 2.7187-.75.8438.1563 1.5313.4063 2.0625.75.4375.3125.7188.7813.8438 1.4063.1562.5937-.0938 1.3906-.75 2.3906.4375-.0937.7968-.1562 1.0781-.1875.3125-.0312.5469-.0469.7031-.0469.1875 0 .3125.0157.375.0469.0313.0625.0469.2031.0469.4219 0 .1875-.0469.5469-.1406 1.0781-.0938.5313-.2344 1.25-.4219 2.1563-.1875.9062-.4375 2.0781-.75 3.5156-.0625.2812-.125.5469-.1875.7969-.0313.2187-.0781.4531-.1406.7031-.0313.2187-.0782.4844-.1407.7969s-.1406.7031-.2343 1.1718c-.0313.2813-.0469.5938-.0469.9375.0312.3125.0937.6094.1875.8907.0937.2812.2344.5156.4219.7031.2187.1562.5156.2344.8906.2344.3125 0 .7187-.1875 1.2187-.5625.5-.4063 1.0313-.9063 1.5938-1.5.5625-.625 1.1406-1.2969 1.7344-2.0157.625-.75 1.2031-1.4687 1.7343-2.1562.5313-.6875 1-1.2969 1.4063-1.8281.4375-.5313.75-.9219.9375-1.1719.25-.2813.5-.4375.75-.4688.25-.0625.4375 0 .5625.1875s.1406.4688.0469.8438c-.0625.375-.2813.8125-.6563 1.3125zm-13.7344 2.0625c.1563-.625.3438-1.3594.5625-2.2031.2188-.8438.4063-1.6563.5625-2.4375.1563-.7813.2657-1.4219.3282-1.9219.0937-.5313.0781-.7813-.0469-.75-.1563.0312-.3281.0781-.5156.1406-.1563.0625-.3594.1094-.6094.1406-.25.0313-.5.0782-.75.1407.25-.5.3906-.9063.4219-1.2188.0625-.3437.0781-.6094.0468-.7969-.0312-.2187-.0937-.3906-.1875-.5156-.3437-.2812-.9531-.0469-1.8281.7031-.8437.7188-1.8281 2.0625-2.9531 4.0313-.4688.8125-.8438 1.6875-1.125 2.625-.2813.9062-.4844 1.7656-.6094 2.5781-.0937.8125-.1094 1.5313-.0469 2.1563.0625.5937.1875.9843.375 1.1718.3438.3438.7344.5157 1.1719.5157.4375-.0313.875-.1563 1.3125-.375.4688-.25.9219-.5625 1.3594-.9375.4687-.375.875-.7657 1.2187-1.1719.375-.4063.6719-.7813.8907-1.125.25-.3438.3906-.5938.4218-.75zm11.2125 7.0312c-.2187.3438-.4531.5625-.7031.6563-.2812.125-.5156.1406-.7031.0469-.2188-.0625-.3594-.2188-.4219-.4688s0-.5625.1875-.9375c.0938-.1875.3125-.6094.6563-1.2656.3125-.6563.7031-1.4375 1.1718-2.3438.4375-.9375.9219-1.9375 1.4532-3 .5312-1.0937 1.0312-2.125 1.5-3.0937.5-.9688.9531-1.8281 1.3593-2.5781.4063-.7813.7032-1.3438.8907-1.6875-.3438-.3125-.5782-.5313-.7032-.6563-.125-.1562-.2187-.4687-.2812-.9375-.0625-.4062.0312-.9375.2812-1.5937.25-.6563.5782-1.2813.9844-1.875.4063-.625.8594-1.1563 1.3594-1.5938s.9844-.6562 1.4531-.6562c.875 0 1.4844.2812 1.8281.8437.375.5625.5938 1.1406.6563 1.7344.0625.4062.0312.9219-.0938 1.5469s-.3593 1.1875-.7031 1.6875c.0938.0625.2188.1406.375.2343.1563.0625.4063.0938.75.0938.5 0 .8438-.0313 1.0313-.0938.2187-.0625.5468-.0937.9843-.0937.5313 0 .9688.1406 1.3125.4219.3438.25.625.5781.8438.9843.2187.375.375.7969.4687 1.2657.125.4375.2032.8437.2344 1.2187.0938.7813-.1094 1.5938-.6094 2.4375-.5.8438-1.1093 1.7656-1.8281 2.7656-.4375.625-.875 1.3282-1.3125 2.1094-.4375.7813-.625 1.4844-.5625 2.1094.0625.4062.1719.7344.3281.9844.1563.25.5938.375 1.3125.375.5313 0 1.1094-.1875 1.7344-.5625.6563-.4063 1.3125-.9063 1.9688-1.5.6875-.625 1.3593-1.2969 2.0156-2.0157.6562-.75 1.2656-1.4687 1.8281-2.1562.5625-.7188 1.0313-1.3594 1.4063-1.9219.4062-.5625.7031-.9687.8906-1.2187.1562-.25.3594-.4219.6094-.5157.25-.0937.4687-.0937.6562 0 .188.0938.297.2813.328.5625.063.2813-.047.6563-.328 1.125-.1875.3125-.5156.8125-.9844 1.5-.4375.6875-.9843 1.4532-1.6406 2.2969-.625.8438-1.3281 1.7188-2.1094 2.625-.7812.875-1.6093 1.6875-2.4843 2.4375-.8438.7188-1.7032 1.3125-2.5782 1.7813-.8437.4687-1.6562.7031-2.4375.7031-.8125 0-1.4843-.1563-2.0156-.4688-.5312-.3125-.9687-.6875-1.3125-1.125-.3125-.4687-.5469-.9687-.7031-1.5-.125-.5625-.1719-1.0781-.1406-1.5468.0312-.375.125-.7657.2812-1.1719.1875-.4375.3906-.875.6094-1.3125.25-.4688.5-.9219.75-1.3594.2812-.4687.5312-.9219.75-1.3594.5312-.9062.9531-1.6718 1.2656-2.2968.3438-.6563.5156-1.2032.5156-1.6407 0-.2812-.0625-.5312-.1875-.75-.125-.2187-.3281-.3281-.6093-.3281-.1875 0-.3282.0156-.4219.0469-.0625 0-.1406 0-.2344 0-.0625 0-.1719.0156-.3281.0469-.125 0-.3281 0-.6094 0-.4062 0-.75-.0625-1.0312-.1875-.2813-.125-.5469-.2188-.7969-.2813-.125.2188-.4063.6875-.8438 1.4063-.4375.7187-.9531 1.5625-1.5468 2.5312-.5625.9688-1.1719 1.9844-1.8282 3.0469-.625 1.0625-1.2187 2.0625-1.7812 3-.5625.9062-1.0313 1.6875-1.4063 2.3437-.4062.625-.6562 1-.75 1.125zm46.8934-3.375c-2.093 0-3.625-.6718-4.593-2.0156-.938-1.3437-1.328-3.1562-1.172-5.4375.125-1.4062.39-3.2031.797-5.3906.343-1.875.859-4.2344 1.547-7.0781.718-2.84379 1.687-6.28129 2.906-10.31254.375-.25.75-.4375 1.125-.5625.406-.15625.765-.26562 1.078-.32812.344-.09375.703-.15625 1.078-.1875.281-.03125.578-.04688.891-.04688.25 0 .5.03125.75.09375.25.03125.453.10938.609.23438-1.594 4.09375-2.844 7.59375-3.75 10.50001-.875 2.9062-1.531 5.2969-1.969 7.1719-.531 2.1875-.859 3.9843-.984 5.3906-.094 1.7187.156 2.9375.75 3.6562.625.7188 1.547 1.0782 2.766 1.0782.968 0 1.953-.3594 2.953-1.0782 1-.75 1.968-1.7968 2.906-3.1406.937-1.375 1.797-3.0156 2.578-4.9219.813-1.9375 1.5-4.1093 2.063-6.5156.25-1.3437.531-2.6875.843-4.03124.25-1.15625.532-2.39062.844-3.70312.313-1.34375.609-2.59375.891-3.75.281-.25.578-.4375.89-.5625.344-.15625.657-.28125.938-.375.344-.125.687-.203127 1.031-.234377.313-.03125.625-.03125.938 0 .25.03125.5.078127.75.140627.281.0625.5.17187.656.32812-.531 1.65625-1 3.15625-1.406 4.5-.375 1.34375-.704 2.5-.985 3.46875-.344 1.12504-.64 2.12504-.89 3.00004-.25.9375-.547 2.1562-.891 3.6562-.344 1.3125-.766 2.9688-1.266 4.9688s-1.109 4.4687-1.828 7.4062c-.187.75-.422 1.6875-.703 2.8125s-.656 2.2969-1.125 3.5156c-.437 1.2188-1 2.4219-1.687 3.6094-.657 1.2188-1.485 2.3125-2.485 3.2813-.969.9687-2.125 1.75-3.469 2.3437-1.343.5938-2.906.8906-4.687.8906-1.031-.0312-1.953-.1875-2.766-.4687-.718-.25-1.39-.625-2.015-1.125-.594-.4688-.938-1.1563-1.032-2.0625.157-.3438.329-.6563.516-.9375.188-.2813.375-.5469.563-.7969.218-.2812.437-.5469.656-.7969.219-.2187.453-.4218.703-.6093.219-.1563.453-.2969.703-.4219s.5-.1875.75-.1875c.125.2812.313.6094.563.9844s.562.7187.937 1.0312c.375.3438.797.625 1.266.8438.468.2187.984.3281 1.547.3281.75 0 1.546-.25 2.39-.75.844-.4688 1.672-1.2969 2.485-2.4844.843-1.1562 1.656-2.7344 2.437-4.7344s1.516-4.5156 2.203-7.5468c-.406.7187-.922 1.5-1.547 2.3437-.625.8438-1.375 1.6406-2.25 2.3906-.843.75-1.843 1.375-3 1.875-1.125.5-2.39.75-3.797.75zm34.463-3.8437c-.313 1.1875-.734 2.2969-1.266 3.3281-.531 1.0313-1.172 1.9219-1.922 2.6719-.718.75-1.546 1.3281-2.484 1.7344-.906.4375-1.906.6562-3 .6562-1.281 0-2.297-.2812-3.047-.8437-.719-.5313-1.265-1.2032-1.64-2.0157-.344-.8125-.547-1.7031-.61-2.6718-.094-.9688-.14-1.875-.14-2.7188 0-.5937.078-1.25.234-1.9687.125-.7188.312-1.4532.562-2.2032s.563-1.5.938-2.25c.406-.75.875-1.4375 1.406-2.0625.188-.5312.469-1 .844-1.4062.406-.4063.859-.7344 1.359-.9844.532-.2812 1.094-.4844 1.688-.6094.594-.1562 1.172-.2343 1.734-.2343.094 0 .172.0156.235.0468.093.0313.187.0625.281.0938.406.0312.906.1875 1.5.4687.625.2813 1.219.7032 1.781 1.2657.594.5625 1.094 1.2812 1.5 2.1562.406.8438.609 1.875.609 3.0938 0 .25-.015.5625-.046.9375-.032.3437-.063.6406-.094.8906.719-.2813 1.469-.625 2.25-1.0313.781-.4062 1.531-.8281 2.25-1.2656.75-.4687 1.437-.9375 2.062-1.4062.625-.4688 1.125-.8907 1.5-1.2657.313-.2812.578-.4375.797-.4687.219-.0313.375.0312.469.1875.094.1562.109.375.047.6562-.063.2813-.235.5938-.516.9375-.156.1875-.562.5625-1.219 1.125-.625.5625-1.375 1.1719-2.25 1.8282-.875.6562-1.828 1.2968-2.859 1.9218s-2.016 1.0938-2.953 1.4063zm-7.922-7.125c-.094.2812-.141.5781-.141.8906 0 .5.032 1.0313.094 1.5938.063.5312.219 1.0156.469 1.4531s.641.8125 1.172 1.125c.562.2812 1.328.4219 2.297.4219h.468c.157-.0313.313-.0625.469-.0938.094-.4062.172-.7656.235-1.0781.093-.3438.14-.6406.14-.8906.063-.5938.063-1.2032 0-1.8282-.062-.625-.187-1.1875-.375-1.6875-.156-.5312-.375-.9531-.656-1.2656-.25-.3437-.563-.5156-.938-.5156-.593 0-1.171.1719-1.734.5156-.531.3125-1.031.7656-1.5 1.3594zm-3 8.25c0 .5625.031 1.125.094 1.6875.062.5312.187 1.0156.375 1.4531.187.4063.437.75.75 1.0313.312.25.719.375 1.219.375.562 0 1.078-.125 1.546-.375.469-.2813.891-.625 1.266-1.0313.375-.4375.703-.9219.984-1.4531.313-.5625.579-1.1406.797-1.7344-.218.0313-.437.0625-.656.0938-.187 0-.406 0-.656 0-1.188 0-2.219-.3438-3.094-1.0313-.844-.7187-1.5-1.625-1.969-2.7187-.187.6562-.343 1.2968-.468 1.9218s-.188 1.2188-.188 1.7813zm24.15 7.0781c-1.187 0-2.156-.1875-2.906-.5625s-1.344-.8281-1.781-1.3594c-.407-.5625-.704-1.1562-.891-1.7812-.156-.6563-.234-1.25-.234-1.7813 0-.9375.078-1.9218.234-2.9531.156-1.0625.344-2.0312.562-2.9062.219-.9063.407-1.6719.563-2.2969.187-.625.312-1.0156.375-1.1719.281-.9062.641-1.6875 1.078-2.3437.469-.6875 1.109-1.1563 1.922-1.4063.312-.0625.641-.125.984-.1875.282-.0312.563-.0469.844-.0469.313 0 .594.0469.844.1407-.844 2.1562-1.516 3.9531-2.016 5.3906-.469 1.4375-.828 2.6094-1.078 3.5156-.281 1.0313-.453 1.8594-.516 2.4844-.156 1.4062-.031 2.4687.375 3.1875.407.7187 1.235 1.0781 2.485 1.0781.812 0 1.594-.2969 2.344-.8906.75-.625 1.437-1.4219 2.062-2.3906-.094-.5-.141-1.0157-.141-1.5469 0-1 .079-1.9688.235-2.9063.187-.9687.39-1.8593.609-2.6718.25-.8438.5-1.5938.75-2.25.281-.6563.516-1.1719.703-1.5469.344-.75.657-1.2031.938-1.3594.281-.1875.734-.2969 1.359-.3281.25-.0313.453-.0313.61 0 .187 0 .343.0156.468.0469.375.0937.563.2812.563.5625 0 .5-.031 1.25-.094 2.25-.062 1-.25 2.0312-.562 3.0937-.219.875-.438 1.625-.657 2.25-.187.5938-.375 1.1094-.562 1.5469-.188.4062-.375.75-.563 1.0312-.187.25-.359.4844-.515.7032.062.9375.14 1.6875.234 2.25s.203 1 .328 1.3125c.156.2812.328.4843.516.6093.219.0938.453.1407.703.1407.437 0 .953-.2032 1.547-.6094.594-.4375 1.203-.9688 1.828-1.5938.656-.6562 1.297-1.3593 1.922-2.1093.656-.7813 1.25-1.5157 1.781-2.2032s.984-1.2812 1.359-1.7812c.375-.5313.61-.8594.704-.9844.218-.2812.421-.4531.609-.5156.219-.0625.391-.0313.516.0937.125.0938.187.2657.187.5157.031.2187-.031.4687-.187.75-.625 1.1875-1.407 2.4531-2.344 3.7968-.906 1.3125-1.891 2.5313-2.953 3.6563-1.032 1.125-2.078 2.0625-3.141 2.8125-1.062.75-2.062 1.125-3 1.125-.844 0-1.516-.2813-2.016-.8438-.468-.5937-.875-1.4375-1.218-2.5312-.719 1.125-1.563 2-2.532 2.625-.968.5937-2.046.8906-3.234.8906zm21.478-4.3125c.813-.125 1.453-.0469 1.922.2344.5.25.719.7344.656 1.4531-.031.4063-.203.7969-.515 1.1719-.282.3437-.641.6562-1.078.9375-.407.2812-.844.5-1.313.6562-.469.1563-.875.2344-1.219.2344-.625 0-1.172-.1406-1.64-.4219-.5-.2812-.719-.7343-.657-1.3593.032-.4063.172-.7657.422-1.0782.219-.3437.516-.6406.891-.8906.344-.25.734-.4531 1.172-.6094.469-.1562.922-.2656 1.359-.3281z" fill="#333"/></svg>