<svg fill="none" height="99" viewBox="0 0 309 99" width="309" xmlns="http://www.w3.org/2000/svg"><path d="m0-.5h284.537" stroke="#159741" transform="matrix(.991737 -.128275 -.0045253 .99999 2.26904 79.7546)"/><path d="m0-.5h284.537" stroke="#159741" transform="matrix(.991737 -.128275 -.0045253 .99999 1.99878 85.4485)"/><path d="m5.1757 72.9613c-.55924.0604-.90468.027-1.03632-.1002-.15241-.1014-.20218-.3436-.14931-.7265.01069-.119.07048-.6559.17936-1.6106.1114-.9314.24671-2.0776.40594-3.4385.18505-1.3401.36915-2.798.55229-4.3737.20645-1.5782.39967-3.0607.57968-4.4474-.48429.0995-.84925.1035-1.09488.0122-.24814-.1146-.38356-.2768-.40625-.4865-.0019-.2355.10105-.4824.30885-.7406.23111-.2607.57086-.4978 1.01925-.7113.08817-.0566.22294-.1184.40431-.1851.07365-.4087.1344-.8278.18223-1.2573.05539-.3596.10826-.7425.15861-1.1487s.10196-.8008.15483-1.1837l1.31604-10.7151c.08183-.551.24869-.9698.50058-1.2564.27267-.3123.79506-.6045 1.56715-.8765.63484-.2337 1.08284-.341 1.34424-.3221.2589-.0044.3829.0529.3722.1719-.0421.2639-.1501.9003-.3238 1.9092-.1738 1.0088-.3818 2.2454-.6242 3.7096-.2216 1.4384-.4617 3.032-.7204 4.7808-.26122 1.7256-.51206 3.4382-.7525 5.138 1.3754-.3608 3.0575-.7194 5.0464-1.0758.7589-.1763 1.4982-.3151 2.218-.4165.7432-.1039 1.4539-.1807 2.1322-.2304.1901-1.2935.3685-2.5858.5353-3.8768.1901-1.2936.367-2.4914.5306-3.5935.1637-1.102.3062-2.0722.4277-2.9104.1423-.864.2502-1.5004.3239-1.9091.0919-.4579.181-.8329.2673-1.1251.1095-.2947.237-.5325.3825-.7132.1688-.1833.3659-.3224.5913-.4175.2255-.0951.4872-.1823.785-.2617.1631-.0176.36-.0506.5904-.0991.1865-.0202.4078-.0441.6642-.0718.2538-.051.5463-.0708.8776-.0595-.6284 2.4725-1.1947 4.9736-1.6989 7.5033-.4835 2.504-.9267 4.9446-1.3296 7.322.4245.0013.7895-.0028 1.0949-.0123.3288-.0119.5889-.0046.7803.0218.5694.0328.9353.1465 1.0978.3411.1858.1921.1719.5-.0415.9238l-.3627.5697c-.1197.2015-.2705.4417-.4525.7207-.1845.2557-.4235.5526-.7169.8908-.194-.0498-.3996-.0983-.6169-.1455-.194-.0498-.388-.0995-.5819-.1493-.2406-.0447-.4696-.0907-.6868-.1379-.1026.5768-.1949 1.1408-.2767 1.6918-.0843.5278-.1558 1.0659-.2143 1.6144-.1561 1.172-.2968 2.3777-.422 3.6171-.0963 1.0712-.1928 2.2486-.2897 3.532-.0711 1.3043-.0981 2.5802-.081 3.8277-.1763.1134-.3564.1918-.5403.2352-.1814.0668-.3407.1194-.478.1578-.1606.0409-.3212.0818-.4818.1228l-.0349.0037-.0699.0076-.0699.0075c-.0932.0101-.1865.0202-.2797.0303-.0932.01-.1889-.0032-.2871-.0397-.1191-.0107-.2394-.0331-.3609-.0671-.1216-.034-.2431-.068-.3647-.102-.0957-.0133-.2056-.0485-.3297-.1059.1033-.7891.1649-1.5265.185-2.2123.0434-.6884.0607-1.2914.0518-1.809.0044-.6134-.007-1.1544-.0341-1.6229-.0423-.6084-.184-1.2649-.4253-1.9697-.2179-.7072-.5278-1.3927-.9297-2.0565-.3785-.6663-.8336-1.2772-1.3652-1.8327-.5083-.558-1.0764-1.0152-1.7043-1.3717-.6254-.3332-1.2124-.5291-1.7609-.5876-.52527-.0612-1.05334-.0394-1.58424.0651-.08749.7166-.16584 1.4088-.23506 2.0763-.06923.6676-.11767 1.3093-.14533 1.9252-.11011 1.3792-.21234 2.7222-.3067 4.0289-.06793 1.1153-.14373 2.2669-.2274 3.4546-.05784 1.2085-.08799 2.2373-.09045 3.0862-.35266.2267-.68706.4043-1.0032.5327-.31362.1518-.59607.2648-.84735.3391-.27206.1002-.53625.1641-.79257.1918zm12.1623-17.0146c-.8256-.0051-1.6113.0327-2.3569.1132-.7249.0548-1.367.1124-1.9262.1728.4937.206.9381.4998 1.333.8815.4182.3791.8544.8152 1.3085 1.3083.4257.4491.7866.9523 1.0827 1.5096.296.5574.5546 1.0952.7757 1.6135.0805-.9988.1752-1.9755.2841-2.9303.1089-.9547.2124-1.8499.3106-2.6856-.1423-.0082-.2834-.0047-.4232.0104-.119-.0107-.2485-.0085-.3883.0066zm28.5305-1.103c-.2758.5013-.6322 1.1292-1.0692 1.8836-.4396.7312-.9011 1.4765-1.3847 2.236-.4629.7336-.9308 1.4207-1.4037 2.0611-.4521.6147-.8403 1.0574-1.1647 1.3282-.2178.165-.4732.3104-.7661.4364-.2928.1259-.6011.2182-.9248.2767-.3004.0561-.5942.0642-.8814.0245-.2846-.0163-.5394-.0831-.7642-.2003-.2274-.1404-.4273-.3545-.5999-.6423-.1443-.2438-.2973-.569-.4592-.9759-.1386-.4093-.2303-.9298-.275-1.5615-.4584.9925-.9978 1.7816-1.6181 2.3672-.6228.5624-1.2245.9928-1.8052 1.2913-.6713.3319-1.354.5589-2.048.681-.3262.0353-.6883-.0435-1.0864-.2362-.3955-.1694-.7466-.4733-1.0534-.9116-.3092-.4617-.5391-1.0615-.6897-1.7996-.1531-.7614-.1582-1.6803-.0153-2.7565.1724-1.4567.5451-2.8053 1.1181-4.0459.5963-1.2432 1.2698-2.3178 2.0204-3.224.7482-.9295 1.5073-1.6481 2.2775-2.1556.7702-.5076 1.4258-.767 1.9667-.7784.6418.0486 1.1746.1796 1.5985.3931.3514.1977.5989.5246.7426.9806.1644.4301.0422 1.0444-.3664 1.843.3186-.1052.5816-.1808.7888-.2267.2305-.0485.404-.079.5205-.0916.1398-.0151.2343-.0136.2834.0047.0283.0441.0513.1477.069.3108.0151.1398.0091.4116-.0179.8152-.0271.4037-.0739.951-.1406 1.6418-.0668.6909-.1586 1.5848-.2757 2.6819-.0239.2147-.0491.4178-.0755.6093-.0057.1656-.0217.3442-.0481.5356-.0057.1656-.0192.3675-.0406.6055-.0214.2381-.0482.5356-.0802.8927-.0007.2123.0129.4465.0406.7028.0485.2305.1191.4469.2117.649.0926.2022.2163.3656.3713.4903.1757.0989.4034.1332.683.103.233-.0252.5208-.1977.8634-.5176.34-.3432.6958-.7589 1.0674-1.2469.369-.5114.7459-1.0589 1.1306-1.6427.4056-.6096.7787-1.1921 1.1193-1.7476.3407-.5554.6411-1.0476.9011-1.4764.2834-.4314.4849-.7479.6046-.9494.1637-.2298.3375-.3665.5214-.4099.1814-.0668.3262-.0353.4345.0944.1084.1298.1427.3382.1031.6254-.0164.2847-.1442.6285-.3835 1.0315zm-10.0748 2.6447c.0661-.4787.1467-1.0414.2417-1.6881.0951-.6468.1693-1.2677.2228-1.8629.0535-.5951.0834-1.0816.0897-1.4595.027-.4036-.0048-.5888-.0955-.5554-.114.0359-.2384.0847-.3731.1464-.1115.0592-.2592.1105-.4431.154-.1839.0434-.3665.0985-.5479.1652.1461-.3929.2182-.7072.2163-.9427.0189-.2614.0091-.4607-.0293-.598-.041-.1606-.1015-.2837-.1815-.3693-.279-.1821-.7144.0418-1.3064.6715-.5712.604-1.1968 1.6853-1.8768 3.2439-.284.6436-.493 1.3263-.6271 2.048-.1366.6984-.2188 1.3556-.2464 1.9715-.0044.6134.042 1.1506.139 1.6116.0945.4376.2192.7188.3741.8435.2841.2287.5892.3253.9155.2901.3237-.0586.6398-.187.9484-.3854.3293-.2242.642-.4937.938-.8086.3193-.3174.5907-.6414.8142-.972.2469-.3331.438-.6367.5734-.9106.1586-.2765.2433-.4742.254-.5932zm19.8431-2.9577c-.51.9509-1.0459 1.8811-1.6076 2.7904-.5384.9069-1.074 1.7309-1.6067 2.4721-.512.7154-1.0028 1.2989-1.4726 1.7504-.444.4723-.8174.7248-1.1203.7576-.7224.078-1.3532-.1956-1.8923-.821-.5184-.6512-.9599-1.4639-1.3246-2.4382-.344-1.0001-.6127-2.0672-.8061-3.2015-.1726-1.16-.2732-2.1982-.3016-3.1145-.0051-.9188.0216-1.6525.0801-2.201.056-.5719.1492-1.018.2796-1.3386.1536-.3231.3394-.5671.5573-.7321.2412-.1675.5431-.318.9059-.4515.158-.0642.3407-.1193.5479-.1653.2072-.0459.3948-.0544.563-.0255.1889.0032.3363.058.4421.1644.1058.1065.1364.28.0917.5205-.0239.2148-.0714.5382-.1426.9702-.0503.4062-.106.8719-.1671 1.3971-.061.5253-.1196 1.0738-.1756 1.6456-.0327.5693-.0446 1.1128-.0357 1.6305.0259.893.1103 1.6736.2533 2.3418.1405.6449.3059 1.1928.4961 1.6437.1877.4276.3757.7491.5641.9645.1883.2154.3291.3181.4223.308.1165-.0126.3098-.1867.5799-.5224.291-.3615.6068-.8199.9475-1.3754.3639-.5579.7307-1.1987 1.1003-1.9223.393-.7261.7484-1.4717 1.0664-2.2369-.1801-.3577-.2863-.7941-.3184-1.3093-.0159-.7998.082-1.5294.2936-2.1887.209-.6827.4643-1.2643.766-1.7448.3249-.483.6612-.8612 1.0088-1.1345.3684-.2991.7041-.465 1.007-.4977.6058-.0655.9963.0573 1.1714.3684.1959.2853.2882.5936.2769.9248.0063.4944-.1419 1.1941-.4448 2.099-.2821.8792-.6718 1.8525-1.1693 2.9199.1216.034.2548.0668.3996.0983.1449.0315.3105.0371.4969.017.7923-.0856 1.4929-.2556 2.1019-.51.6323-.2569 1.1676-.5387 1.6059-.8454.4616-.3092.8404-.6213 1.1363-.9361.3168-.3407.57-.6156.7595-.8247.1247-.1549.2569-.2399.3967-.255.1399-.0151.2601.0072.3609.0671.1008.0598.1587.1596.1739.2994.0151.1398-.0384.2989-.1606.4771-.7279 1.1159-1.6637 2.0539-2.8074 2.814-1.1203.7575-2.4844 1.2232-4.0922 1.3969-.1398.0152-.3158.0224-.5281.0218-.2122-.0007-.4386-.0234-.6792-.0681zm22.5779-3.5007c-.5881 1.1008-1.272 2.1884-2.0516 3.2627-.7821 1.0511-1.6325 2.0152-2.5513 2.8925-.898.8514-1.8461 1.5668-2.8443 2.1461-.9748.5768-1.9516.9181-2.9303 1.0239-.5126.0554-1.0857-.0123-1.7193-.2032-.6078-.1701-1.184-.485-1.7288-.9447-.5448-.4598-1.0128-1.0811-1.404-1.8639-.3678-.7853-.5565-1.7668-.5661-2.9445-.0101-.9654.1727-1.9989.5486-3.1003.3967-1.1273.9083-2.1727 1.5349-3.1362.6499-.966 1.3977-1.7894 2.2434-2.4702.8691-.6832 1.7696-1.0752 2.7017-1.1759.8855-.0957 1.5502.0564 1.9942.4563.4441.3999.6781.9286.7021 1.5861.0082.7299-.1297 1.4167-.4137 2.0603-.2606.6411-.5975 1.2315-1.0106 1.7712s-.8662 1.0365-1.3593 1.4906c-.4698.4515-.92.8655-1.3508 1.2421-.4748.405-.9276.7957-1.3583 1.1723-.4333.3533-.8108.677-1.1326.971.0863.5801.2441 1.0581.4734 1.434.2292.376.4976.6771.8049.9032.3048.2028.6383.3435 1.0005.4223.3829.0529.7607.0592 1.1336.0189.7922-.0856 1.593-.4197 2.4022-1.0022.8067-.6058 1.58-1.3023 2.32-2.0894.7607-.813 1.449-1.6418 2.0648-2.4863.6392-.847 1.1615-1.5753 1.5671-2.1849.1429-.204.2947-.3265.4553-.3675.1814-.0667.3237-.0585.427.0246.1241.0573.1974.1909.2201.4006.0202.1864-.0374.4166-.1728.6905zm-9.5302-4.4157c-.2797.0302-.6024.2065-.9683.529-.3426.3199-.6713.7679-.9861 1.3442-.3174.5529-.5976 1.2315-.8406 2.0357-.2456.7809-.397 1.6695-.4542 2.6657.2569-.2399.5372-.4823.8407-.7273.301-.2683.6008-.5482.8993-.8398.9187-.8772 1.5447-1.6285 1.8778-2.2538.3331-.6254.5003-1.1503.5015-1.5747-.0013-.4478-.0819-.7573-.2419-.9286-.1625-.1946-.3719-.2781-.6282-.2504zm38.5885 1.5937c-.275.5013-.632 1.1292-1.069 1.8836-.439.7311-.901 1.4765-1.384 2.2359-.463.7337-.931 1.4208-1.404 2.0612-.452.6146-.84 1.0574-1.165 1.3281-.218.165-.473.3105-.766.4364-.293.126-.601.2182-.925.2768-.3.056-.5939.0642-.8811.0245-.2846-.0164-.5394-.0831-.7642-.2003-.2274-.1404-.4274-.3546-.5999-.6424-.1443-.2437-.2973-.569-.4592-.9758-.1386-.4094-.2303-.9299-.275-1.5615-.4585.9925-.9978 1.7815-1.6181 2.3672-.6228.5623-1.2245.9928-1.8052 1.2913-.6713.3318-1.354.5588-2.048.681-.3262.0352-.6883-.0435-1.0864-.2362-.3955-.1695-.7466-.4733-1.0534-.9117-.3092-.4616-.5391-1.0615-.6897-1.7996-.1531-.7614-.1582-1.6802-.0153-2.7565.1724-1.4566.5451-2.8052 1.1181-4.0459.5963-1.2431 1.2698-2.3178 2.0204-3.224.7482-.9295 1.5073-1.648 2.2775-2.1556.7702-.5075 1.4258-.767 1.9667-.7783.6418.0485 1.1746.1795 1.5985.393.3514.1978.5989.5247.7426.9806.1644.4302.0422 1.0445-.3664 1.843.3186-.1051.5816-.1807.7888-.2267.2305-.0484.404-.079.5205-.0916.1398-.0151.2338-.0135.2838.0048.028.0441.051.1476.069.3108.015.1398.009.4115-.018.8152s-.074.9509-.141 1.6418c-.067.6908-.1585 1.5848-.2756 2.6819-.0239.2147-.0491.4178-.0755.6092-.0057.1657-.0217.3442-.0481.5357-.0057.1656-.0192.3674-.0406.6055-.0214.238-.0482.5356-.0803.8927-.0006.2122.013.4465.0407.7028.0485.2305.1191.4468.2117.649.0926.2021.2167.3656.3717.4903.175.0989.403.1332.683.103.233-.0252.52-.1978.863-.5177.34-.3432.696-.7588 1.067-1.2469.369-.5113.746-1.0589 1.131-1.6427.406-.6096.779-1.1921 1.119-1.7475.341-.5555.641-1.0476.901-1.4765.284-.4314.485-.7478.605-.9493.164-.2299.337-.3665.521-.41.182-.0667.327-.0352.435.0945s.143.3382.103.6254c-.016.2846-.144.6285-.384 1.0315zm-10.0743 2.6446c.0661-.4786.1467-1.0413.2417-1.6881.0951-.6467.1693-1.2677.2228-1.8628s.0834-1.0816.0897-1.4595c.027-.4037-.0048-.5888-.0955-.5555-.114.0359-.2384.0847-.3731.1464-.1115.0592-.2592.1106-.4431.154-.1839.0435-.3665.0986-.5479.1653.1461-.393.2182-.7072.2163-.9428.0189-.2613.0091-.4606-.0294-.5979-.0409-.1606-.1014-.2837-.1814-.3694-.279-.182-.7144.0419-1.3064.6716-.5712.6039-1.1968 1.6852-1.8768 3.2439-.284.6436-.493 1.3262-.6271 2.0479-.1366.6985-.2188 1.3556-.2464 1.9715-.0044.6134.042 1.1506.139 1.6116.0945.4377.2192.7189.3741.8436.2841.2286.5892.3253.9154.29.3238-.0585.6399-.187.9485-.3853.3293-.2242.642-.4937.938-.8086.3192-.3174.5907-.6414.8142-.972.2469-.3332.438-.6367.5734-.9107.1586-.2764.2433-.4742.254-.5932zm32.5713 2.8451c-.536.058-1.013.0035-1.432-.1634-.393-.1462-.724-.3698-.992-.6708s-.46-.6575-.575-1.0694c-.118-.4351-.145-.9037-.082-1.4056.035-.3338.105-.7775.21-1.331.103-.5769.201-1.1887.297-1.8355.115-.6726.209-1.331.281-1.9752.092-.6701.134-1.264.125-1.7816-.011-.541-.081-.9696-.209-1.2857-.131-.3395-.348-.4928-.651-.4601-.373.0403-.744.21-1.112.5091-.371.2759-.744.6462-1.118 1.1109-.35.4622-.705.9956-1.064 1.6002-.338.5787-.674 1.1808-1.007 1.8061-.124.815-.223 1.5329-.297 2.1538-.077.5977-.147 1.1475-.211 1.6494-.043.4761-.091.9056-.143 1.2885-.056.3596-.101.7063-.136 1.04-.044.2406-.229.4963-.553.7671-.327.2475-.681.4625-1.062.6451s-.711.2891-.991.3193c-.303.0327-.442-.0583-.418-.273.008-.1424.055-.4657.142-.9702.064-.5019.154-1.0892.269-1.7618.09-.6933.188-1.4229.294-2.1887s.204-1.4954.294-2.1887c.058-.5486.122-1.1566.191-1.8242.056-.5718.126-1.2393.208-2.0026.106-.7658.227-1.604.364-2.5147.148-.1574.3-.2799.456-.3674.176-.1134.355-.2034.536-.2702.179-.09.372-.158.579-.204.187-.0201.374-.0286.563-.0255.166.0057.334.0347.505.087.191.0264.363.0903.516.1917-.053.1707-.109.4125-.169.7255-.063.2897-.124.6027-.182.939-.053.3829-.127.78-.224 1.1912.257-.4522.55-.9081.877-1.3678.348-.4856.725-.927 1.13-1.3244.428-.3999.887-.7324 1.377-.9975.487-.2884.999-.4616 1.535-.5195.443-.0478.853.0375 1.23.2561.377.2185.684.5507.921.9966.258.4201.432.9434.524 1.5701.114.6241.107 1.3203-.022 2.0886l-.218 1.5794c-.064.502-.152 1.1009-.265 1.7968-.093.67-.224 1.415-.395 2.235-.084.5277-.095.9768-.031 1.3471.087.3677.34.529.76.4837.419-.0454.916-.3583 1.489-.939.597-.5831 1.183-1.2711 1.757-2.064.574-.7928 1.113-1.5935 1.614-2.4021.5-.832.876-1.4973 1.128-1.9961.177-.3255.354-.545.53-.6584.176-.1133.315-.1401.416-.0802.124.0573.2.2141.227.4704.026.233-.035.546-.181.939-.128.3438-.337.8026-.629 1.3763-.268.5712-.603 1.1849-1.003 1.8411s-.835 1.3278-1.303 2.0149c-.47.6638-.969 1.2834-1.496 1.859-.529.5523-1.069 1.0114-1.619 1.3773-.524.3866-1.042.6076-1.555.663zm13.309-23.1498c-.042.2638-.154.5353-.336.8143-.161.2531-.361.4751-.6.6659-.218.165-.452.2846-.703.3589-.252.0743-.467.0504-.645-.0718-.529-.3199-.829-.6883-.897-1.1053-.071-.4402-.011-.8593.182-1.2573.19-.4213.446-.779.768-1.0731.319-.3174.604-.5132.856-.5875.251-.0743.467-.0387.648.1068.201.1196.363.3026.483.5488.119.223.194.4859.227.7888.056.3004.062.5709.017.8115zm-4.018 7.9661c.102-.1524.31-.2929.627-.4213.316-.1285.646-.2349.991-.3193.341-.1077.652-.1766.932-.2068.3-.0561.475-.0749.524-.0567.026.0208-.006.2718-.095.7529-.09.4811-.205 1.0476-.347 1.6994-.141.6518-.292 1.3282-.452 2.0291-.162.6776-.279 1.2325-.35 1.6645-.072.432-.16.9248-.265 1.4784-.107.5302-.203 1.0592-.288 1.587-.063.5019-.095.9767-.093 1.4245.001.4478.073.7818.214 1.0023.147.267.297.4512.449.5526.15.0781.306.1083.47.0907.466-.0503 1.02-.3696 1.664-.9578.667-.5907 1.324-1.2746 1.97-2.0517.668-.8029 1.277-1.5996 1.828-2.3899.549-.8136.95-1.4582 1.205-1.9336.162-.2532.332-.4248.511-.5149.202-.0925.366-.0985.493-.0179.15.0781.236.222.259.4317.046.2072.002.4594-.131.7567-.302.6927-.765 1.5325-1.389 2.5193-.627.9635-1.302 1.9088-2.027 2.8358-.728.9037-1.456 1.6896-2.185 2.3577-.706.6657-1.302 1.0366-1.789 1.1128-.394.0661-.797.039-1.211-.0813-.388-.0995-.759-.2598-1.113-.4809-.333-.2469-.624-.5337-.871-.8606-.25-.3502-.408-.722-.475-1.1157-.132-.5749-.218-1.3672-.257-2.3767-.041-1.0328-.025-2.0836.048-3.1523.071-1.092.194-2.1308.37-3.1164.2-.9881.461-1.7353.783-2.2416zm15.981 10.3665c.722-.0781 1.484-.4433 2.286-1.0957.822-.6783 1.6-1.4459 2.332-2.303.756-.8596 1.428-1.722 2.019-2.5873.61-.8911 1.064-1.6002 1.361-2.1273.177-.3256.356-.5218.537-.5885.179-.0901.321-.0819.427.0246.106.1064.161.289.165.5479.002.2355-.073.5148-.227.8379-.133.2972-.368.7352-.707 1.314-.317.5529-.71 1.1729-1.177 1.8599-.448.6613-.974 1.3546-1.579 2.0801-.584.6996-1.209 1.3565-1.873 1.9705-.667.5906-1.367 1.0907-2.101 1.5-.731.4326-1.469.6892-2.215.7698-1.025.1108-1.909.0059-2.651-.3147-.716-.2998-1.316-.73-1.801-1.2905-.462-.563-.814-1.1969-1.055-1.9016-.244-.728-.405-1.4532-.483-2.1756-.078-.7223-.012-1.637.198-2.7442.211-1.1071.577-2.184 1.101-3.2306.544-1.0725 1.267-2.0111 2.17-2.8159.901-.8282 2.015-1.314 3.343-1.4575.746-.0806 1.403.1077 1.971.565.591.4547.923 1.126.996 2.014.045.4194.021.8464-.074 1.281-.097.4112-.244.7925-.442 1.1439-.2.3281-.453.603-.759.8247-.283.2191-.611.3488-.984.3891-.302.0328-.547-.0469-.733-.239-.165-.2179-.286-.4642-.362-.7387-.057-.3004-.088-.5917-.095-.8738.016-.2847.043-.4761.079-.5744.099-.1757.215-.306.347-.3911.132-.085.287-.1842.463-.2975.132-.085.226-.2012.28-.3486.079-.1499.109-.3063.091-.4695-.018-.1631-.079-.2978-.185-.4043-.106-.1064-.264-.1483-.473-.1256-.21.0226-.576.2389-1.097.6489-.501.3841-1.006.9455-1.515 1.6842-.489.7129-.9 1.5943-1.235 2.6441-.334 1.0498-.441 2.24-.321 3.5708.06.7714.233 1.3892.519 1.8534.286.4641.619.8171.999 1.059.38.2418.785.3983 1.217.4695s.847.0854 1.243.0426zm24.025-8.7492c-.588 1.1008-1.272 2.1884-2.051 3.2628-.782 1.051-1.633 2.0152-2.552 2.8924-.898.8514-1.846 1.5668-2.844 2.1461-.975.5769-1.951.9182-2.93 1.0239-.513.0554-1.086-.0123-1.719-.2032-.608-.17-1.184-.4849-1.729-.9447-.545-.4597-1.013-1.081-1.404-1.8638-.368-.7854-.557-1.7669-.566-2.9445-.01-.9655.172-1.9989.548-3.1004.397-1.1272.909-2.1726 1.535-3.1361.65-.9661 1.398-1.7895 2.244-2.4702.869-.6833 1.769-1.0753 2.701-1.176.886-.0957 1.55.0564 1.995.4564.444.3999.678.9286.702 1.5861.008.7299-.13 1.4166-.414 2.0602-.261.6411-.598 1.2315-1.011 1.7712s-.866 1.0366-1.359 1.4906c-.47.4515-.92.8656-1.351 1.2422-.475.4049-.927.7956-1.358 1.1722-.433.3533-.811.677-1.133.9711.087.58.244 1.058.474 1.434.229.376.497.677.805.9031.304.2028.638.3436 1 .4223.383.0529.761.0592 1.134.0189.792-.0856 1.593-.4196 2.402-1.0021.807-.6058 1.58-1.3023 2.32-2.0895.761-.813 1.449-1.6418 2.065-2.4862.639-.8471 1.161-1.5754 1.567-2.185.143-.204.294-.3265.455-.3674.181-.0668.324-.0586.427.0246.124.0573.198.1908.22.4005.02.1864-.037.4166-.173.6905zm-9.53-4.4157c-.279.0303-.602.2066-.968.529-.343.3199-.671.768-.986 1.3442-.318.5529-.598 1.2315-.841 2.0357-.245.7809-.397 1.6695-.454 2.6658.257-.2399.537-.4824.841-.7274.301-.2682.6-.5481.899-.8397.919-.8772 1.545-1.6285 1.878-2.2539.333-.6253.5-1.1502.501-1.5747-.001-.4478-.082-.7573-.242-.9286-.162-.1946-.372-.2781-.628-.2504zm31.804 2.6099c-.039.7349-.081 1.4349-.127 2.1-.022.6625-.024 1.1931-.004 1.5917.039.5851.19.9932.45 1.2243.261.2311.531.3316.811.3014.326-.0353.705-.2412 1.135-.6178.454-.3791.923-.8423 1.406-1.3895.483-.5473.961-1.1411 1.434-1.7816.473-.6404.903-1.2409 1.29-1.8014.408-.5863.742-1.0938 1.002-1.5227.284-.4314.477-.7116.581-.8407.125-.1549.256-.2516.393-.29.161-.0409.291-.0315.392.0283.101.0599.161.183.182.3694.02.1864-.048.4295-.204.7293-.232.4729-.537 1.0362-.914 1.6899-.379.6304-.803 1.2891-1.271 1.9762-.468.687-.972 1.3662-1.512 2.0375-.517.6688-1.054 1.269-1.609 1.8005-.532.529-1.063.9635-1.592 1.3035-.503.3609-.976.5652-1.419.613-.326.0353-.65-.0239-.974-.1776-.299-.1562-.582-.3731-.848-.6509-.266-.2777-.489-.5955-.669-.9532-.157-.3602-.244-.728-.261-1.1033.006-.1657.011-.4491.014-.8502-.86 1.2009-1.756 2.1817-2.687 2.9425-.911.7349-1.82 1.1514-2.729 1.2496-.326.0353-.685-.0085-1.075-.1313-.391-.1228-.757-.3543-1.101-.6944-.32-.3426-.606-.8067-.858-1.3924s-.401-1.3122-.448-2.1794c-.076-1.359.054-2.6696.388-3.9316.335-1.262.804-2.3736 1.408-3.3346.624-.9868 1.351-1.7844 2.181-2.3927.851-.6341 1.73-1.0003 2.639-1.0985.396-.0428.769.023 1.118.1975.346.1511.653.3772.922.6783.266.2777.489.5954.669.9532.203.3552.357.6921.463 1.0108.09-.6934.169-1.3739.239-2.0414.069-.6676.142-1.3002.219-1.8978.139-.8874.283-1.8459.431-2.8755.14-.8874.301-1.9066.483-3.0579.181-1.1512.392-2.3644.631-3.6397.213-.2116.419-.3753.619-.4912.2-.1158.39-.2071.571-.2739.203-.0926.397-.1489.583-.1691.233-.0251.447-.0129.641.0369.191.0265.359.1616.503.4053.165.2179.298.569.397 1.0533.1.4843.172 1.1484.216 1.9923.064 1.0303-.001 2.1689-.196 3.4158-.172 1.2444-.444 2.5468-.815 3.9071-.374 1.337-.829 2.6944-1.363 4.0723-.514 1.3521-1.092 2.6522-1.735 3.9004zm-2.013.6772c.045-.4528.079-.9043.101-1.3546.045-.4528.101-.9185.167-1.3971-.044.0283-.089.0567-.133.085-.02.0258-.053.0529-.097.0812-.244.1442-.418.1631-.524.0567-.109-.1297-.178-.3344-.208-.614-.015-.1399-.053-.3833-.114-.7303-.064-.3703-.174-.7355-.331-1.0958-.136-.386-.324-.7075-.564-.9645-.243-.2802-.55-.4002-.923-.3599-.536.0579-1.053.3967-1.552 1.0163-.501.5964-.954 1.3172-1.358 2.1623-.406.8218-.724 1.6931-.954 2.6138-.231.9207-.332 1.7331-.302 2.4372.074 1.1235.301 1.9123.68 2.3664s.848.6509 1.407.5904c.42-.0453.857-.2575 1.311-.6366.477-.3816.924-.8306 1.339-1.347.439-.5189.83-1.0444 1.173-1.5766.367-.5346.661-.9789.882-1.3329zm27.889-3.7564c-.275.5012-.632 1.1291-1.069 1.8835-.439.7312-.901 1.4765-1.385 2.236-.462.7336-.93 1.4207-1.403 2.0612-.452.6146-.841 1.0573-1.165 1.3281-.218.165-.473.3104-.766.4364-.293.1259-.601.2182-.925.2767-.3.0561-.594.0642-.881.0246-.285-.0164-.54-.0832-.764-.2003-.228-.1405-.428-.3546-.6-.6424-.145-.2438-.298-.569-.46-.9759-.138-.4093-.23-.9298-.275-1.5615-.458.9925-.997 1.7816-1.618 2.3672-.622.5624-1.224.9928-1.805 1.2913-.671.3319-1.354.5589-2.048.681-.326.0353-.688-.0435-1.086-.2362-.396-.1694-.747-.4733-1.054-.9116-.309-.4617-.539-1.0615-.689-1.7996-.153-.7614-.159-1.6802-.016-2.7565.173-1.4567.545-2.8053 1.118-4.0459.597-1.2432 1.27-2.3178 2.021-3.224.748-.9295 1.507-1.6481 2.277-2.1556.771-.5076 1.426-.767 1.967-.7783.642.0485 1.175.1795 1.599.393.351.1978.598.5246.742.9806.165.4301.042 1.0444-.366 1.843.318-.1052.581-.1807.789-.2267.23-.0485.404-.079.52-.0916.14-.0151.234-.0136.283.0047.029.0441.052.1477.069.3108.016.1398.01.4116-.017.8152-.028.4037-.074.951-.141 1.6418-.067.6909-.159 1.5848-.276 2.6819-.024.2147-.049.4178-.075.6093-.006.1656-.022.3442-.048.5356-.006.1656-.02.3675-.041.6055-.021.2381-.048.5356-.08.8927-.001.2123.013.4465.04.7028.049.2305.12.4469.212.649.093.2022.217.3656.371.4903.176.0989.404.1332.683.103.233-.0252.521-.1977.864-.5176.34-.3432.696-.7589 1.067-1.2469.369-.5114.746-1.0589 1.131-1.6427.405-.6096.779-1.1921 1.119-1.7476.341-.5554.641-1.0476.901-1.4764.284-.4314.485-.7479.605-.9494.164-.2298.337-.3665.521-.4099.182-.0668.326-.0353.435.0944.108.1298.142.3382.103.6254-.017.2847-.144.6285-.384 1.0316zm-10.074 2.6446c.066-.4787.146-1.0414.241-1.6881.095-.6468.17-1.2677.223-1.8629.054-.5951.083-1.0816.09-1.4594.027-.4037-.005-.5889-.096-.5555-.114.0359-.238.0847-.373.1464-.111.0592-.259.1105-.443.154-.184.0434-.366.0985-.548.1652.146-.3929.218-.7072.216-.9427.019-.2614.01-.4607-.029-.598-.041-.1606-.101-.2837-.181-.3693-.279-.1821-.715.0418-1.307.6716-.571.6039-1.197 1.6852-1.877 3.2438-.284.6436-.493 1.3263-.627 2.048-.136.6984-.218 1.3556-.246 1.9715-.004.6134.042 1.1506.139 1.6116.094.4377.219.7188.374.8435.284.2287.589.3253.916.2901.323-.0586.639-.187.948-.3854.329-.2242.642-.4937.938-.8086.319-.3174.591-.6414.814-.972.247-.3331.438-.6367.574-.9106.158-.2765.243-.4742.254-.5932zm18.076-9.4853c.277-.2658.55-.472.817-.6187.288-.1726.545-.2947.773-.3665.249-.0976.503-.1486.762-.153.634-.0214 1.04.1351 1.217.4695.201.3319.285.8886.252 1.6702-.027.4037-.113.9198-.257 1.5483s-.308 1.4006-.492 2.3162c-.186.8924-.382 1.9155-.587 3.0692-.182 1.1512-.337 2.4409-.466 3.8693-.156 1.1719-.316 2.5212-.481 4.0478-.139 1.3351-.306 2.9444-.503 4.8281-.174 1.8811-.354 4.0339-.539 6.4585-.054.5952-.273.9607-.659 1.0967-.363.1335-.764.1297-1.204-.0113-.173-.0756-.336-.1641-.488-.2655-.13-.1039-.273-.2299-.43-.3779-.155-.1247-.293-.3102-.414-.5564.324-2.0152.597-3.8482.819-5.4988.246-1.6531.468-3.0915.665-4.3151.201-1.4126.394-2.6828.578-3.8107.064-.502.117-.991.16-1.4671.063-.5019.128-.9922.194-1.4708-.25.5221-.526 1.0234-.827 1.5039-.302.4805-.645.9065-1.029 1.278-.384.3716-.812.6654-1.284.8813-.446.2368-.929.348-1.449.3334-1.276-.0271-2.223-.3962-2.843-1.1072-.595-.7136-.925-1.6916-.989-2.9341-.029-.4919-.018-1.0354.036-1.6305.053-.5951.121-1.1682.203-1.7193.082-.551.158-1.0425.229-1.4746.092-.4578.163-.7837.213-.9777.184-.9156.3-1.6943.348-2.3361.072-.6442-.078-1.1584-.45-1.5426.304-.245.592-.4175.864-.5176.293-.126.553-.2248.781-.2966.254-.051.51-.0787.769-.0831.639.0252 1.026.2192 1.159.5819.157.3603.183.9233.077 1.6891-.051.4062-.147.9352-.288 1.587-.144.6285-.298 1.2815-.46 1.9592-.162.6776-.307 1.3061-.433 1.8855-.128.556-.191.9519-.189 1.1874-.097 1.0712-.02 1.888.229 2.4504.247.5391.685.7747 1.314.7067.303-.0328.627-.1974.973-.494.342-.3199.676-.7214 1.001-1.2044.348-.4856.678-1.0281.991-1.6276.309-.6228.584-1.2419.824-1.8572.263-.6178.481-1.2189.654-1.8033.196-.5869.328-1.1081.396-1.5634.07-.8798.102-1.5668.096-2.0612-.007-.4944-.218-.9195-.633-1.2753zm25.025-16.2476c.228-.0717.47-.1215.726-.1492.21-.0227.434-.0233.672-.0019.261.019.504.087.729.2041l-3.184 20.2523c-.042.2639-.224.5428-.546.8369s-.672.5441-1.05.75c-.358.1801-.687.2982-.987.3542-.28.0303-.409-.0737-.388-.3117.053-.3829.164-1.3143.334-2.7943.072-.6442.164-1.4321.275-2.3635.109-.9547.233-2.0996.371-3.4347.162-1.3376.348-2.89.557-4.6571.207-1.7905.446-3.8318.717-6.1242.005-.1656.011-.3312.017-.4969.01-.119-.004-.2472-.042-.3844-.015-.1399-.05-.2422-.104-.3071.164-.2298.355-.4272.572-.5922.216-.1883.423-.3404.623-.4563.246-.1209.482-.2289.708-.324zm-2.831 24.1745c.596-.1587 1.092-.1533 1.487.0161.393.1462.595.4897.607 1.0307.009.3054-.087.6105-.29.9153-.205.2815-.46.5448-.763.7897-.281.2425-.589.4408-.926.5951-.314.1518-.599.2415-.855.2692-.489.0529-.92-.0066-1.292-.1786-.373-.1719-.561-.4934-.564-.9645-.01-.3054.066-.5847.227-.8379.136-.2739.321-.518.557-.7321.26-.2166.546-.4008.86-.5526.314-.1517.631-.2685.952-.3504zm13.533-25.331c.228-.0718.47-.1216.727-.1493.209-.0226.433-.0232.671-.0018.262.0189.505.0869.729.2041l-3.183 20.2522c-.043.2639-.225.5429-.546.837-.322.2941-.672.5441-1.051.75-.357.1801-.687.2981-.987.3542-.28.0302-.409-.0737-.387-.3118.053-.3829.164-1.3143.334-2.7942.072-.6443.163-1.4321.275-2.3636.109-.9547.232-2.0996.371-3.4347.161-1.3376.347-2.89.557-4.6571.207-1.7904.446-3.8318.716-6.1242.006-.1656.011-.3312.017-.4968.011-.1191-.003-.2472-.041-.3845-.016-.1398-.05-.2422-.104-.307.163-.2299.354-.4273.572-.5923.215-.1883.423-.3404.623-.4562.246-.121.482-.2289.707-.324zm-2.83 24.1744c.596-.1586 1.091-.1533 1.487.0162.393.1461.595.4896.606 1.0306.01.3054-.087.6106-.29.9154-.205.2815-.459.5447-.763.7897-.28.2424-.589.4408-.926.5951-.313.1517-.598.2414-.855.2691-.489.0529-.92-.0066-1.292-.1785-.372-.172-.56-.4935-.564-.9646-.009-.3054.067-.5847.228-.8379.135-.2739.321-.5179.557-.732.259-.2167.546-.4009.86-.5526.313-.1518.631-.2686.952-.3505z" fill="#159741"/></svg>