<svg fill="none" height="80" viewBox="0 0 309 80" width="309" xmlns="http://www.w3.org/2000/svg"><path d="m6.01138 69.75c-.62139.0672-1.00521.0301-1.15147-.1113-.16935-.1126-.22465-.3817-.16591-.8071.01189-.1323.07832-.7288.1993-1.7896.12377-1.0349.27412-2.3084.45104-3.8206.20561-1.489.41017-3.1089.61366-4.8597.22938-1.7535.44408-3.4007.64409-4.9415-.53811.1105-.94362.1151-1.21653.0136-.27572-.1274-.42618-.3076-.45139-.5406-.00212-.2617.11227-.536.34316-.8229.25679-.2897.63429-.5531 1.13251-.7903.09796-.063.2477-.1315.44923-.2057.08183-.4541.14932-.9198.20247-1.397.06154-.3996.12029-.825.17624-1.2763.05594-.4514.11329-.8898.17203-1.3152l1.46227-11.9057c.09092-.6123.27632-1.0776.5562-1.396.30296-.347.88342-.6717 1.74132-.9739.7053-.2596 1.2032-.3789 1.4936-.3579.2876-.0049.4254.0588.4135.191-.0468.2932-.1668 1.0003-.3598 2.1213-.1931 1.121-.4242 2.4949-.6935 4.1218-.2462 1.5982-.513 3.3689-.8005 5.3121-.2902 1.9172-.5689 3.8202-.8361 5.7088 1.5283-.4009 3.3973-.7993 5.6071-1.1953.8432-.1959 1.6647-.3502 2.4645-.4628.8257-.1154 1.6154-.2007 2.369-.256.2113-1.4372.4095-2.8731.5949-4.3076.2112-1.4372.4077-2.7681.5895-3.9927.1819-1.2245.3403-2.3025.4753-3.2338.158-.9601.278-1.6671.3598-2.1213.1022-.5087.2011-.9254.297-1.2501.1217-.3274.2634-.5916.425-.7924.1875-.2036.4066-.3582.6571-.4639.2505-.1056.5412-.2026.8722-.2907.1812-.0196.3999-.0563.656-.1102.2071-.0224.4531-.049.7379-.0797.282-.0567.607-.0787.9751-.0661-.6981 2.7471-1.3274 5.5261-1.8876 8.337-.5372 2.7821-1.0297 5.494-1.4773 8.1355.4716.0014.8772-.0031 1.2165-.0136.3653-.0133.6543-.0052.867.0242.6326.0364 1.0392.1627 1.2198.3789.2064.2135.191.5556-.0461 1.0265l-.4031.6329c-.1329.224-.3005.4909-.5027.8009-.205.2841-.4705.614-.7966.9897-.2155-.0553-.444-.1091-.6854-.1616-.2155-.0553-.4311-.1106-.6466-.1659-.2673-.0497-.5217-.1008-.7631-.1533-.114.641-.2165 1.2676-.3074 1.8799-.0937.5864-.1731 1.1843-.2381 1.7938-.1735 1.3022-.3297 2.6418-.4689 4.0189-.107 1.1903-.2143 2.4984-.3219 3.9245-.079 1.4492-.109 2.8668-.09 4.253-.1959.126-.396.2131-.6003.2614-.2016.0741-.3786.1325-.5311.1752-.1785.0455-.3569.091-.5353.1364l-.0389.0042-.0776.0084-.0777.0084c-.1036.0112-.2071.0224-.3107.0336s-.2099-.0035-.3191-.0441c-.1323-.0119-.2659-.0367-.401-.0745-.135-.0378-.2701-.0756-.4051-.1134-.1064-.0147-.2285-.0539-.3664-.1176.1147-.8767.1832-1.6961.2056-2.4582.0482-.7648.0674-1.4348.0575-2.01.0049-.6815-.0078-1.2826-.0379-1.8032-.0469-.676-.2044-1.4054-.4725-2.1885-.2422-.7858-.5865-1.5475-1.033-2.285-.4207-.7404-.9263-1.4191-1.5169-2.0363-.5648-.62-1.196-1.1281-1.8937-1.5242-.6949-.3701-1.3471-.5878-1.9566-.6529-.5836-.0679-1.1703-.0438-1.7602.0724-.09723.7963-.18429 1.5653-.26121 2.307-.07691.7417-.13074 1.4548-.16147 2.1391-.12234 1.5324-.23593 3.0246-.34078 4.4766-.07548 1.2392-.1597 2.5187-.25267 3.8384-.06427 1.3428-.09777 2.4858-.10049 3.4291-.39185.2519-.7634.4492-1.11467.5919-.34847.1687-.6623.2943-.9415.3768-.30229.1113-.59583.1823-.88063.213zm13.51372-18.905c-.9174-.0057-1.7904.0363-2.6189.1258-.8054.0609-1.5188.1248-2.1402.192.5486.2288 1.0424.5553 1.4811.9793.4647.4213.9493.9059 1.4539 1.4538.4731.499.8741 1.0581 1.203 1.6774.329.6192.6163 1.2168.8619 1.7927.0895-1.1098.1947-2.1951.3157-3.2559s.236-2.0554.3451-2.984c-.1581-.0091-.3149-.0053-.4702.0115-.1323-.0119-.2761-.0094-.4314.0074zm31.7005-1.2255c-.3064.557-.7025 1.2546-1.188 2.0929-.4884.8123-1.0013 1.6405-1.5386 2.4843-.5143.8152-1.0341 1.5786-1.5596 2.2902-.5024.6829-.9337 1.1748-1.2941 1.4757-.2421.1833-.5258.345-.8512.4849s-.6679.2424-1.0276.3075c-.3338.0623-.6602.0714-.9793.0273-.3163-.0183-.5993-.0924-.8492-.2226-.2526-.1561-.4748-.394-.6665-.7138-.1603-.2708-.3304-.6322-.5103-1.0842-.1539-.4549-.2558-1.0332-.3055-1.7351-.5094 1.1028-1.1087 1.9796-1.7979 2.6303-.692.6248-1.3606 1.1031-2.0057 1.4347-.7459.3688-1.5045.621-2.2756.7567-.3625.0392-.7648-.0483-1.2071-.2624-.4395-.1883-.8296-.5259-1.1704-1.013-.3436-.5129-.5991-1.1794-.7664-1.9995-.1701-.846-.1758-1.8669-.0171-3.0628.1917-1.6185.6058-3.117 1.2425-4.4954.6625-1.3813 1.4108-2.5754 2.2449-3.5823.8312-1.0328 1.6747-1.8311 2.5305-2.3951.8557-.5639 1.5842-.8522 2.1853-.8648.713.0539 1.305.1995 1.776.4367.3905.2198.6655.583.8251 1.0896.1827.4779.047 1.1605-.4071 2.0478.3541-.1169.6462-.2008.8764-.2519.2561-.0539.4489-.0878.5784-.1018.1553-.0168.2603-.015.3149.0053.0314.0489.057.164.0766.3453.0168.1553.0102.4573-.0199.9058-.03.4485-.0821 1.0566-.1562 1.8242s-.1762 1.7609-.3063 2.9799c-.0266.2386-.0545.4642-.0839.677-.0063.184-.0241.3824-.0535.5951-.0063.184-.0213.4083-.0451.6728-.0237.2645-.0535.5951-.0891.9919-.0007.2358.0144.4961.0452.7809.0539.2561.1323.4965.2352.7211.1028.2246.2404.4062.4125.5447.1953.1099.4482.1481.7589.1145.2589-.028.5787-.2197.9593-.5752.3779-.3813.7732-.8431 1.186-1.3854.41-.5682.8288-1.1766 1.2563-1.8252.4506-.6774.8652-1.3246 1.2437-1.9418.3785-.6171.7122-1.164 1.0012-1.6405.3149-.4793.5388-.8309.6717-1.0548.1819-.2554.375-.4072.5794-.4555.2015-.0742.3624-.0392.4828.105.1204.1441.1585.3757.1145.6948-.0182.3163-.1602.6983-.4261 1.1462zm-11.1942 2.9384c.0734-.5318.163-1.157.2686-1.8756s.1881-1.4086.2475-2.0698c.0595-.6613.0926-1.2018.0996-1.6217.0301-.4485-.0053-.6543-.1061-.6172-.1266.0399-.2648.0941-.4145.1627-.1239.0658-.288.1228-.4923.1711-.2043.0482-.4073.1095-.6088.1836.1623-.4366.2424-.7858.2403-1.0475.021-.2904.0101-.5118-.0326-.6644-.0455-.1784-.1127-.3152-.2016-.4104-.31-.2022-.7938.0465-1.4516.7462-.6346.671-1.3297 1.8725-2.0853 3.6043-.3155.7151-.5478 1.4736-.6968 2.2755-.1518.7761-.243 1.5062-.2738 2.1906-.0048.6815.0467 1.2784.1545 1.7906.105.4863.2435.7988.4157.9373.3156.2541.6546.3615 1.0171.3223.3597-.065.711-.2078 1.0538-.4282.366-.2491.7134-.5485 1.0423-.8984.3547-.3527.6563-.7127.9047-1.08.2742-.3702.4866-.7074.637-1.0118.1763-.3072.2704-.5269.2823-.6592zm22.0479-3.2862c-.5667 1.0565-1.1622 2.09-1.7863 3.1004-.5982 1.0076-1.1933 1.9232-1.7852 2.7468-.5688.7949-1.1142 1.4432-1.6362 1.9449-.4933.5248-.9082.8053-1.2448.8417-.8026.0867-1.5035-.2173-2.1025-.9122-.576-.7235-1.0666-1.6266-1.4718-2.7091-.3822-1.1112-.6807-2.2969-.8957-3.5572-.1918-1.2889-.3035-2.4424-.3351-3.4606-.0057-1.0209.024-1.8361.0891-2.4456.0622-.6353.1657-1.1311.3105-1.4873.1707-.3589.3771-.6301.6193-.8134.2679-.1861.6035-.3533 1.0065-.5017.1757-.0713.3786-.1325.6088-.1836s.4387-.0605.6256-.0283c.2099.0035.3737.0644.4912.1826.1176.1183.1515.3111.1019.5784-.0266.2386-.0794.5979-.1584 1.0779-.056.4513-.1179.9688-.1857 1.5524s-.1328 1.193-.1951 1.8284c-.0363.6326-.0496 1.2364-.0397 1.8116.0287.9923.1226 1.8596.2815 2.602.1561.7166.3398 1.3254.5512 1.8264.2086.4751.4175.8324.6267 1.0717.2093.2393.3657.3534.4692.3422.1295-.014.3443-.2075.6445-.5804.3232-.4017.6741-.9111 1.0526-1.5282.4044-.62.812-1.332 1.2227-2.136.4366-.8067.8315-1.6352 1.1848-2.4854-.2001-.3974-.3181-.8824-.3538-1.4548-.0176-.8886.0912-1.6993.3262-2.4319.2323-.7585.516-1.4047.8512-1.9386.361-.5367.7346-.9569 1.1209-1.2605.4093-.3324.7823-.5168 1.1188-.5532.6732-.0727 1.1071.0638 1.3016.4095.2177.3169.3202.6595.3077 1.0275.007.5493-.1577 1.3267-.4942 2.3323-.3135.9768-.7465 2.0582-1.2992 3.2443.135.0378.283.0741.444.1091.1609.035.345.0413.5521.019.8803-.0952 1.6587-.2841 2.3354-.5667.7025-.2855 1.2973-.5986 1.7843-.9394.5129-.3435.9338-.6902 1.2626-1.0401.352-.3785.6333-.684.8439-.9163.1385-.1721.2855-.2666.4408-.2833.1554-.0168.289.008.401.0745.1119.0665.1763.1774.1931.3327.0168.1554-.0426.3321-.1784.5301-.8088 1.2399-1.8485 2.2821-3.1192 3.1267-1.2449.8417-2.7605 1.3591-4.547 1.5521-.1553.0168-.3509.0249-.5867.0242-.2358-.0008-.4874-.026-.7547-.0756zm25.0865-3.8897c-.6535 1.2231-1.4133 2.4315-2.2795 3.6252-.869 1.1679-1.814 2.2392-2.8348 3.2139-.9978.946-2.0513 1.7408-3.1603 2.3845-1.0832.641-2.1685 1.0202-3.2559 1.1377-.5696.0615-1.2064-.0137-1.9104-.2258-.6753-.1889-1.3156-.5388-1.9209-1.0496-.6053-.5109-1.1253-1.2012-1.5599-2.071-.4088-.8726-.6184-1.9632-.629-3.2717-.0113-1.0727.1919-2.2209.6095-3.4448.4408-1.2525 1.0093-2.414 1.7054-3.4846.7221-1.0734 1.553-1.9883 2.4927-2.7447.9656-.7591 1.9662-1.1947 3.0019-1.3066.9838-.1063 1.7224.0627 2.2158.507.4934.4444.7534 1.0318.78 1.7624.0092.811-.144 1.574-.4595 2.2892-.2897.7123-.664 1.3683-1.123 1.9679-.459.5997-.9624 1.1518-1.5103 1.6563-.522.5017-1.0223.9617-1.5009 1.3802-.5276.4499-1.0306.884-1.5093 1.3025-.4814.3925-.9008.7522-1.2584 1.0789.0959.6445.2713 1.1756.526 1.5934.2548.4177.5529.7522.8944 1.0034.3387.2253.7092.3818 1.1116.4692.4254.0588.8453.0659 1.2596.0211.8803-.0951 1.77-.4663 2.6691-1.1135.8964-.6732 1.7556-1.447 2.5777-2.3217.8453-.9033 1.6101-1.8241 2.2943-2.7625.7102-.9411 1.2906-1.7503 1.7412-2.4277.1588-.2267.3275-.3628.5059-.4082.2015-.0742.3597-.0651.4744.0273.1379.0637.2194.212.2446.445.0225.2071-.0416.4629-.192.7673zm-10.5891-4.9064c-.3107.0336-.6693.2295-1.0759.5878-.3806.3554-.7459.8533-1.0957 1.4935-.3526.6144-.664 1.3684-.934 2.2619-.2728.8677-.441 1.855-.5046 2.962.2854-.2666.5968-.536.9341-.8082.3344-.298.6675-.6091.9992-.933 1.0208-.9747 1.7163-1.8095 2.0865-2.5043.3701-.6948.5558-1.2781.5572-1.7497-.0015-.4975-.0911-.8414-.2688-1.0318-.1806-.2162-.4132-.3089-.698-.2782zm42.8763 1.7708c-.306.557-.702 1.2546-1.188 2.0929-.488.8124-1.001 1.6405-1.538 2.4844-.514.8152-1.034 1.5786-1.56 2.2902-.502.6829-.934 1.1748-1.294 1.4757-.242.1833-.526.3449-.851.4849-.326.1399-.668.2424-1.028.3075-.333.0622-.66.0713-.979.0272-.316-.0182-.599-.0924-.849-.2225-.253-.1561-.475-.394-.667-.7138-.16-.2708-.33-.6322-.51-1.0843-.154-.4548-.256-1.0332-.306-1.735-.509 1.1028-1.108 1.9795-1.797 2.6303-.692.6248-1.361 1.103-2.006 1.4347-.746.3687-1.505.621-2.276.7567-.362.0391-.765-.0483-1.207-.2625-.439-.1882-.829-.5259-1.17-1.0129-.3439-.5129-.5993-1.1794-.7666-1.9996-.1702-.8459-.1758-1.8669-.0171-3.0627.1916-1.6185.6057-3.117 1.2427-4.4955.662-1.3812 1.411-2.5753 2.245-3.5822.831-1.0328 1.674-1.8312 2.53-2.3951.856-.564 1.584-.8522 2.185-.8648.713.0539 1.305.1995 1.776.4367.391.2197.666.5829.826 1.0895.182.478.047 1.1606-.408 2.0478.355-.1168.647-.2008.877-.2519.256-.0538.449-.0878.578-.1018.156-.0167.261-.015.315.0053.032.049.057.1641.077.3453.017.1554.01.4573-.02.9059-.03.4485-.082 1.0566-.156 1.8242s-.177 1.7609-.307 2.9798c-.026.2386-.054.4643-.084.677-.006.184-.024.3824-.053.5951-.006.1841-.021.4083-.045.6728s-.054.5952-.089.9919c-.001.2358.014.4961.045.7809.054.2561.132.4965.235.7211.103.2247.241.4062.413.5448.195.1099.448.148.759.1144.258-.0279.578-.2197.959-.5751.378-.3814.773-.8432 1.186-1.3855.41-.5681.829-1.1765 1.256-1.8252.451-.6773.865-1.3246 1.244-1.9417.378-.6172.712-1.164 1.001-1.6405.315-.4793.539-.8309.672-1.0549.182-.2554.375-.4072.579-.4555.202-.0741.363-.0391.483.105.12.1442.158.3758.114.6949-.018.3162-.16.6983-.426 1.1461zm-11.194 2.9385c.074-.5318.163-1.157.269-1.8757.105-.7186.188-1.4085.247-2.0698.06-.6612.093-1.2018.1-1.6216.03-.4486-.005-.6543-.106-.6172-.127.0399-.265.0941-.415.1627-.124.0657-.288.1227-.492.171s-.407.1095-.609.1837c.162-.4367.243-.7858.24-1.0475.021-.2904.011-.5119-.032-.6644-.046-.1785-.113-.3153-.202-.4104-.31-.2023-.794.0465-1.451.7462-.635.671-1.33 1.8724-2.086 3.6043-.315.7151-.547 1.4736-.696 2.2755-.152.776-.243 1.5062-.274 2.1905-.005.6816.046 1.2785.154 1.7907.105.4863.244.7987.416.9373.316.254.655.3614 1.017.3223.36-.0651.711-.2078 1.054-.4282.366-.2491.713-.5486 1.042-.8985.355-.3526.656-.7126.905-1.08.274-.3701.486-.7074.637-1.0118.176-.3071.27-.5269.282-.6591zm36.191 3.1612c-.596.0644-1.126.0038-1.591-.1816-.437-.1624-.805-.4108-1.103-.7453s-.511-.7305-.639-1.1882c-.131-.4835-.161-1.0041-.09-1.5618.038-.3709.116-.8638.233-1.4789.114-.641.223-1.3208.329-2.0394.129-.7473.233-1.4789.313-2.1947.102-.7445.149-1.4044.139-1.9796-.013-.6011-.09-1.0772-.233-1.4285-.146-.3772-.387-.5476-.723-.5112-.415.0448-.826.2333-1.236.5657-.412.3065-.826.7179-1.241 1.2343-.39.5136-.784 1.1062-1.183 1.778-.376.643-.749 1.312-1.119 2.0068-.138.9054-.248 1.7032-.33 2.3931-.086.664-.164 1.2749-.234 1.8326-.048.529-.101 1.0062-.16 1.4317-.061.3995-.111.7847-.15 1.1556-.049.2673-.254.5514-.615.8523-.363.2749-.756.5139-1.18.7168-.423.2029-.79.3211-1.101.3547-.336.0364-.491-.0647-.465-.3033.01-.1582.062-.5175.159-1.078.07-.5577.17-1.2102.299-1.9575.1-.7704.209-1.5811.326-2.4319.118-.8509.226-1.6616.326-2.432.065-.6095.136-1.2851.213-2.0268.062-.6353.139-1.3771.231-2.2252.117-.8508.252-1.7822.405-2.794.164-.1749.333-.311.506-.4083.196-.1259.394-.226.596-.3002.199-.1.413-.1756.643-.2266.208-.0224.416-.0319.626-.0284.184.0063.371.0385.561.0966.212.0294.403.1005.573.2131-.058.1897-.121.4584-.188.8061-.07.3219-.137.6697-.202 1.0433-.058.4255-.142.8667-.249 1.3236.286-.5024.611-1.009.975-1.5198.387-.5395.805-1.03 1.255-1.4715.476-.4443.986-.8138 1.53-1.1084.542-.3204 1.11-.5128 1.706-.5772.492-.0531.947.0417 1.366.2845.42.2429.761.612 1.024 1.1074.286.4668.48 1.0482.582 1.7445.127.6934.119 1.467-.024 2.3207l-.243 1.7549c-.07.5577-.169 1.2232-.294 1.9964-.103.7445-.249 1.5723-.439 2.4834-.094.5863-.105 1.0853-.035 1.4967.097.4087.378.5878.844.5374.466-.0503 1.018-.3981 1.656-1.0432.663-.6479 1.314-1.4124 1.952-2.2933.638-.881 1.236-1.7707 1.793-2.6691.555-.9244.973-1.6636 1.253-2.2178.197-.3618.393-.6056.589-.7316.196-.1259.35-.1556.462-.0892.138.0637.222.238.253.5228.028.2589-.039.6066-.201 1.0433-.142.382-.375.8918-.699 1.5292-.298.6347-.67 1.3166-1.115 2.0457s-.927 1.4753-1.447 2.2387c-.523.7375-1.077 1.4261-1.663 2.0656-.588.6137-1.188 1.1237-1.799 1.5303-.582.4296-1.158.6752-1.727.7367zm14.788-25.722c-.047.2932-.172.5947-.374.9047-.179.2813-.401.528-.666.74-.243.1833-.503.3162-.782.3988-.28.0825-.518.0559-.716-.0798-.589-.3555-.921-.7649-.997-1.2281-.08-.4891-.012-.9548.202-1.397.211-.4681.496-.8656.853-1.1924.355-.3526.672-.5702.951-.6528.279-.0825.519-.043.72.1187.224.1329.403.3362.538.6098.131.2477.215.5399.252.8764.062.3338.068.6344.019.9017zm-4.465 8.8512c.113-.1694.345-.3254.696-.4681.351-.1428.718-.261 1.101-.3548.38-.1196.725-.1962 1.036-.2298.334-.0622.528-.0832.583-.0629.028.0231-.007.3019-.106.8365-.1.5346-.228 1.164-.385 1.8882-.158.7243-.325 1.4758-.503 2.2546-.18.7529-.31 1.3694-.389 1.8494s-.177 1.0276-.294 1.6426c-.12.5892-.226 1.177-.32 1.7634-.071.5577-.105 1.0853-.104 1.5828.002.4975.081.8687.239 1.1136.163.2967.329.5014.498.6141.167.0868.341.1204.522.1008.518-.056 1.134-.4107 1.849-1.0643.741-.6563 1.471-1.4162 2.19-2.2796.741-.8922 1.418-1.7773 2.03-2.6555.61-.904 1.056-1.6202 1.34-2.1485.179-.2813.368-.4719.566-.572.225-.1029.408-.1095.548-.0199.167.0868.263.2467.288.4797.051.2302.003.5104-.145.8407-.336.7697-.85 1.7028-1.544 2.7993-.696 1.0705-1.447 2.1208-2.252 3.1508-.808 1.0041-1.617 1.8773-2.428 2.6197-.784.7396-1.447 1.1518-1.988 1.2364-.437.0735-.885.0434-1.345-.0903-.431-.1106-.843-.2887-1.237-.5343-.37-.2743-.692-.5931-.968-.9563-.277-.389-.453-.8022-.527-1.2396-.147-.6388-.242-1.5191-.285-2.6408-.046-1.1476-.028-2.3151.053-3.5026.078-1.2133.215-2.3675.411-3.4626.222-1.0979.512-1.9281.87-2.4907zm17.756 11.5183c.803-.0867 1.649-.4925 2.54-1.2174.914-.7536 1.778-1.6066 2.592-2.5589.839-.9551 1.587-1.9134 2.242-2.8748.679-.9901 1.183-1.778 1.513-2.3636.196-.3618.395-.5798.597-.6539.199-.1001.357-.091.474.0273.118.1182.179.3212.184.6088.002.2617-.082.572-.253.931-.147.3302-.409.8169-.785 1.4599-.352.6144-.789 1.3033-1.309 2.0667-.496.7347-1.081 1.5051-1.753 2.3112-.65.7773-1.343 1.5071-2.082 2.1894-.741.6563-1.519 1.2119-2.334 1.6667-.812.4806-1.633.7658-2.461.8553-1.139.1231-2.121.0065-2.945-.3497-.796-.3331-1.463-.811-2.002-1.4338-.513-.6256-.904-1.3299-1.172-2.1129-.271-.8089-.45-1.6147-.536-2.4173-.087-.8026-.014-1.819.22-3.0491.233-1.2302.641-2.4267 1.222-3.5897.605-1.1916 1.409-2.2345 2.412-3.1288 1.001-.9201 2.239-1.4599 3.715-1.6194.828-.0895 1.558.1198 2.189.6278.657.5052 1.026 1.2512 1.107 2.2378.05.466.023.9405-.082 1.4233-.108.4569-.271.8806-.491 1.2711-.223.3645-.504.6699-.844.9162-.314.2435-.678.3877-1.093.4324-.336.0364-.608-.0521-.814-.2656-.183-.2421-.318-.5157-.403-.8208-.063-.3338-.098-.6574-.105-.9709.018-.3163.047-.529.088-.6381.11-.1953.238-.3401.385-.4346.147-.0944.318-.2046.514-.3306.147-.0944.251-.2235.312-.3873.087-.1665.12-.3404.101-.5216-.02-.1812-.088-.331-.206-.4493-.118-.1182-.293-.1648-.526-.1396s-.639.2656-1.218.7211c-.557.4268-1.118 1.0506-1.684 1.8714-.543.792-1 1.7713-1.372 2.9378-.371 1.1664-.49 2.4889-.356 3.9675.066.8572.259 1.5436.576 2.0594.318.5157.688.9079 1.11 1.1766s.873.4426 1.353.5217.94.0949 1.38.0473zm26.695-9.7212c-.653 1.2231-1.413 2.4315-2.279 3.6252-.869 1.1679-1.814 2.2391-2.835 3.2138-.998.946-2.051 1.7409-3.16 2.3846-1.083.6409-2.169 1.0202-3.256 1.1377-.57.0615-1.207-.0137-1.911-.2258-.675-.1889-1.315-.5388-1.92-1.0497-.606-.5108-1.126-1.2011-1.56-2.0709-.409-.8726-.619-1.9632-.629-3.2717-.012-1.0727.191-2.221.609-3.4448.441-1.2525 1.009-2.4141 1.706-3.4846.722-1.0734 1.553-1.9883 2.492-2.7447.966-.7592 1.966-1.1947 3.002-1.3066.984-.1064 1.723.0627 2.216.507.493.4444.753 1.0318.78 1.7624.009.811-.144 1.574-.46 2.2891-.289.7124-.664 1.3684-1.123 1.968-.459.5997-.962 1.1518-1.51 1.6563-.522.5016-1.022.9617-1.501 1.3801-.527.4499-1.03.8841-1.509 1.3025-.481.3926-.901.7522-1.258 1.079.095.6445.271 1.1756.526 1.5933.254.4178.552.7523.894 1.0035.339.2253.709.3817 1.112.4692.425.0588.845.0658 1.259.0211.88-.0952 1.77-.4663 2.669-1.1136.897-.6731 1.756-1.447 2.578-2.3216.845-.9033 1.61-1.8242 2.294-2.7625.71-.9411 1.291-1.7503 1.741-2.4277.159-.2267.328-.3628.506-.4083.202-.0741.36-.065.475.0273.138.0637.219.2121.244.4451.023.2071-.041.4629-.192.7673zm-10.589-4.9064c-.311.0336-.669.2295-1.076.5878-.38.3554-.746.8533-1.095 1.4935-.353.6144-.664 1.3683-.934 2.2619-.273.8677-.441 1.855-.505 2.962.285-.2666.597-.536.934-.8082.335-.2981.668-.6091.999-.933 1.021-.9747 1.717-1.8095 2.087-2.5043.37-.6949.556-1.2781.557-1.7497-.001-.4975-.091-.8415-.269-1.0318-.18-.2162-.413-.309-.698-.2782zm35.337 2.8999c-.042.8166-.089 1.5943-.14 2.3333-.025.7361-.027 1.3256-.005 1.7686.044.65.211 1.1035.501 1.3603.289.2568.59.3684.9.3348.363-.0391.783-.2679 1.262-.6863.504-.4213 1.025-.9359 1.562-1.544.536-.608 1.067-1.2679 1.593-1.9795.525-.7116 1.003-1.3788 1.433-2.0015.454-.6515.825-1.2154 1.114-1.692.315-.4793.53-.7906.645-.9341.139-.1721.285-.2795.437-.3222.179-.0455.324-.035.436.0315s.179.2033.201.4104c.023.2071-.053.4772-.226.8103-.258.5255-.596 1.1514-1.015 1.8777-.422.7004-.893 1.4324-1.413 2.1958s-1.08 1.518-1.68 2.2639c-.575.7431-1.17 1.4099-1.788 2.0005-.591.5878-1.18 1.0706-1.768 1.4484-.559.4009-1.085.628-1.577.6811-.362.0392-.723-.0266-1.082-.1973-.333-.1736-.647-.4147-.942-.7233-.296-.3086-.544-.6616-.744-1.0591-.174-.4002-.271-.8089-.289-1.2259.006-.1841.011-.4989.015-.9447-.956 1.3344-1.951 2.4242-2.986 3.2695-1.012.8165-2.022 1.2793-3.032 1.3885-.363.0391-.761-.0095-1.195-.146-.433-.1364-.841-.3936-1.222-.7715-.356-.3807-.674-.8964-.954-1.5472-.28-.6507-.446-1.4579-.497-2.4214-.085-1.5101.058-2.9663.431-4.3685.372-1.4023.893-2.6373 1.563-3.7051.694-1.0965 1.501-1.9827 2.424-2.6586.945-.7046 1.923-1.1114 2.932-1.2205.44-.0476.854.0255 1.242.2194.385.1679.726.4192 1.025.7536.295.3086.543.6617.743 1.0591.226.3947.397.7691.514 1.1231.1-.7704.189-1.5264.266-2.2682.077-.7417.158-1.4446.243-2.1086.155-.986.315-2.051.479-3.195.156-.986.334-2.1185.536-3.3976.203-1.2791.437-2.6272.702-4.0441.237-.2351.466-.4171.688-.5458.222-.1288.433-.2302.635-.3044.224-.1028.44-.1654.647-.1878.259-.028.497-.0144.712.0409.213.0294.399.1795.56.4503.183.2422.33.6323.441 1.1704.11.5381.19 1.276.239 2.2136.072 1.1448-.001 2.4099-.218 3.7954-.191 1.3827-.493 2.8298-.905 4.3412-.416 1.4855-.921 2.9938-1.515 4.5248-.571 1.5023-1.213 2.9469-1.928 4.3338zm-2.236.7525c.05-.5032.087-1.0049.112-1.5052.05-.5031.112-1.0205.186-1.5524-.049.0315-.098.063-.147.0945-.023.0287-.06.0588-.109.0903-.27.1602-.464.1812-.582.0629-.12-.1441-.197-.3715-.231-.6822-.017-.1554-.059-.4258-.127-.8114-.071-.4114-.193-.8173-.368-1.2176-.151-.4289-.36-.7861-.626-1.0716-.27-.3114-.612-.4448-1.026-.4-.595.0644-1.17.4408-1.724 1.1293-.557.6627-1.06 1.4635-1.508 2.4025-.452.9132-.805 1.8813-1.061 2.9043s-.368 1.9256-.336 2.708c.083 1.2483.335 2.1247.756 2.6293.421.5045.943.7232 1.564.656.466-.0503.951-.2861 1.456-.7073.53-.4241 1.026-.923 1.488-1.4967.488-.5766.922-1.1605 1.303-1.7518.408-.594.734-1.0877.98-1.4809zm30.988-4.1739c-.306.557-.702 1.2546-1.188 2.0929-.488.8123-1.001 1.6405-1.538 2.4843-.515.8152-1.034 1.5786-1.56 2.2902-.502.683-.934 1.1749-1.294 1.4757-.242.1834-.526.345-.851.4849-.326.14-.668.2424-1.028.3075-.334.0623-.66.0714-.979.0273-.316-.0182-.599-.0924-.849-.2226-.253-.156-.475-.394-.667-.7138-.16-.2708-.33-.6322-.51-1.0842-.154-.4549-.256-1.0332-.306-1.7351-.509 1.1028-1.108 1.9796-1.797 2.6303-.692.6248-1.361 1.1031-2.006 1.4347-.746.3688-1.505.621-2.276.7567-.362.0392-.765-.0483-1.207-.2624-.439-.1883-.829-.5259-1.17-1.013-.344-.5129-.599-1.1794-.767-1.9995-.17-.846-.175-1.8669-.017-3.0628.192-1.6185.606-3.117 1.243-4.4954.662-1.3813 1.411-2.5754 2.245-3.5823.831-1.0327 1.674-1.8311 2.53-2.3951.856-.5639 1.584-.8522 2.185-.8648.713.0539 1.305.1995 1.776.4367.391.2198.666.583.826 1.0896.182.4779.046 1.1605-.408 2.0478.354-.1169.647-.2008.877-.2519.256-.0539.449-.0878.578-.1018.156-.0168.261-.015.315.0053.032.0489.057.1641.077.3453.017.1553.01.4573-.02.9058s-.082 1.0566-.156 1.8242c-.075.7676-.177 1.7609-.307 2.9799-.026.2386-.054.4642-.084.677-.006.184-.024.3824-.053.5951-.006.184-.021.4083-.045.6728s-.054.5951-.089.9919c-.001.2358.014.4961.045.7809.054.2561.132.4965.235.7211s.24.4062.413.5447c.195.1099.448.1481.759.1145.258-.028.578-.2197.959-.5752.378-.3813.773-.8431 1.186-1.3854.41-.5682.829-1.1766 1.256-1.8252.451-.6774.865-1.3246 1.244-1.9418.378-.6171.712-1.164 1.001-1.6405.315-.4793.539-.8309.672-1.0548.182-.2554.375-.4072.579-.4555.202-.0742.363-.0392.483.105.12.1441.158.3757.114.6948-.018.3163-.16.6984-.426 1.1462zm-11.194 2.9384c.074-.5318.163-1.157.269-1.8756.105-.7186.188-1.4086.247-2.0698.06-.6613.093-1.2018.1-1.6217.03-.4485-.005-.6542-.106-.6172-.127.0399-.265.0941-.415.1627-.124.0658-.288.1228-.492.1711-.204.0482-.407.1095-.609.1836.162-.4366.243-.7858.24-1.0475.021-.2904.011-.5118-.032-.6644-.046-.1784-.113-.3152-.202-.4104-.31-.2022-.794.0465-1.451.7462-.635.6711-1.33 1.8725-2.086 3.6043-.315.7151-.547 1.4737-.696 2.2756-.152.776-.244 1.5061-.274 2.1905-.005.6815.046 1.2784.154 1.7906.105.4864.244.7988.416.9374.316.254.655.3614 1.017.3222.36-.065.711-.2078 1.054-.4282.366-.2491.713-.5485 1.042-.8984.355-.3527.656-.7127.905-1.08.274-.3702.486-.7074.637-1.0118.176-.3072.27-.5269.282-.6592zm20.085-10.5391c.308-.2953.611-.5245.908-.6875.319-.1917.606-.3275.859-.4072.277-.1085.559-.1651.846-.17.705-.0238 1.156.1501 1.353.5217.223.3688.317.9873.28 1.8557-.031.4486-.126 1.022-.286 1.7203-.16.6984-.342 1.5562-.547 2.5737-.207.9915-.424 2.1282-.652 3.4101-.202 1.2791-.375 2.7122-.517 4.2992-.174 1.3022-.352 2.8014-.535 4.4976-.154 1.4834-.34 3.2716-.559 5.3645-.193 2.0902-.393 4.4822-.599 7.1762-.059.6613-.304 1.0675-.733 1.2186-.403.1483-.848.1441-1.337-.0127-.192-.0839-.373-.1823-.543-.2949-.143-.1155-.302-.2554-.477-.4199-.172-.1385-.326-.3446-.46-.6182.36-2.2392.664-4.2758.911-6.1098.272-1.8368.519-3.435.738-4.7946.223-1.5695.437-2.9809.642-4.2341.071-.5577.13-1.101.178-1.63.07-.5577.142-1.1025.216-1.6343-.278.5801-.585 1.1371-.92 1.671-.335.5338-.716 1.0072-1.143 1.42-.426.4129-.902.7393-1.426.9793-.495.2631-1.032.3865-1.61.3704-1.418-.0301-2.471-.4402-3.159-1.2303-.662-.7928-1.028-1.8795-1.099-3.2601-.033-.5465-.02-1.1504.04-1.8116.059-.6613.134-1.2981.225-1.9103.091-.6123.176-1.1584.255-1.6385.102-.5087.181-.8708.236-1.0863.205-1.0174.334-1.8826.388-2.5957.079-.7158-.087-1.2872-.5-1.714.337-.2722.657-.4639.959-.5752.325-.1399.615-.2498.868-.3295.282-.0567.567-.0875.855-.0923.71.028 1.139.2435 1.287.6466.175.4002.203 1.0258.086 1.8767-.056.4513-.163 1.0391-.32 1.7633-.161.6984-.331 1.424-.511 2.1769-.181.7529-.341 1.4513-.481 2.095-.143.6179-.213 1.0577-.211 1.3194-.107 1.1902-.022 2.0978.255 2.7227.275.599.762.8607 1.461.7851.336-.0363.696-.2193 1.08-.5489.38-.3554.751-.8015 1.112-1.3382.387-.5395.754-1.1423 1.101-1.8084.344-.692.65-1.3799.916-2.0635.293-.6864.535-1.3543.726-2.0037.218-.6521.365-1.2312.441-1.7371.078-.9775.113-1.7409.106-2.2902s-.242-1.0217-.703-1.417zm27.805-18.05289c.253-.07976.522-.13503.807-.16581.233-.02518.482-.02587.747-.00207.29.02101.56.09659.81.22675l-3.538 22.50252c-.047.2932-.249.6032-.606.9299-.358.3268-.747.6046-1.167.8334-.398.2001-.764.3313-1.097.3935-.311.0336-.454-.0818-.431-.3463.059-.4255.183-1.4604.372-3.1048.079-.7158.181-1.5912.305-2.6261.121-1.0608.258-2.3329.412-3.8164.18-1.4862.386-3.2111.619-5.1746.23-1.98932.495-4.25752.796-6.80457.006-.18403.013-.36806.019-.5521.012-.13225-.004-.27464-.046-.42719-.017-.15534-.056-.26905-.116-.34113.182-.2554.394-.47476.636-.65808.24-.20921.47-.37819.692-.50694.274-.13434.536-.25433.786-.35998zm-3.145 26.86049c.662-.1763 1.213-.1703 1.653.018.436.1623.661.544.673 1.1451.011.3394-.096.6784-.322 1.0171-.228.3127-.51.6052-.848.8774-.311.2694-.654.4898-1.028.6612-.349.1687-.665.2684-.95.2991-.544.0588-1.023-.0074-1.436-.1984-.414-.1911-.623-.5483-.627-1.0717-.01-.3394.074-.6497.253-.931.15-.3044.357-.5755.619-.8134.289-.2407.607-.4454.955-.614.349-.1686.701-.2984 1.058-.3894zm15.037-28.14557c.253-.079761.522-.135029.807-.165806.233-.025181.482-.025871.746-.002069.291.021004.561.096588.811.22675l-3.538 22.502495c-.047.2932-.249.6032-.607.93-.357.3267-.746.6045-1.167.8333-.397.2001-.763.3313-1.097.3936-.31.0335-.454-.0819-.43-.3464.059-.4255.183-1.4604.371-3.1048.08-.7158.182-1.5912.306-2.6261.121-1.0608.258-2.3329.412-3.8164.179-1.4862.386-3.2111.619-5.1745.23-1.98939.495-4.2576.796-6.80465.006-.18403.012-.36806.019-.55209.012-.13226-.004-.27465-.047-.4272-.016-.15534-.055-.26905-.115-.34113.182-.2554.394-.47476.636-.65808.239-.20921.47-.37819.692-.50694.273-.13433.535-.25433.786-.35998zm-3.145 26.86057c.662-.1763 1.213-.1704 1.652.0179.437.1623.662.5441.674 1.1451.011.3394-.097.6784-.322 1.0171-.228.3128-.511.6053-.848.8774-.311.2694-.654.4898-1.029.6613-.348.1686-.665.2683-.95.2991-.543.0587-1.022-.0074-1.435-.1985-.414-.191-.623-.5483-.627-1.0717-.011-.3393.074-.6497.253-.931.15-.3043.357-.5755.619-.8134.288-.2407.607-.4453.955-.614.349-.1686.701-.2984 1.058-.3893z" fill="#159741"/></svg>