<svg fill="none" height="15" viewBox="0 0 96 15" width="96" xmlns="http://www.w3.org/2000/svg"><path d="m3.56395 8.04688c.10937-.01823.21875-.03646.32812-.05469.10938-.02735.22787-.05925.35547-.09571-.15495-.14583-.36003-.23697-.61523-.27343-.02735.14583-.05014.28711-.06836.42383zm5.59179-4.22461c-.03646.39192-.14127.80208-.31445 1.23046-.16406.42839-.39648.8431-.69727 1.24415-.30078.40104-.66536.77473-1.09375 1.12109-.42838.34635-.91601.62891-1.46289.84765.08203.15495.15951.31902.23243.49219.07291.17318.13671.36914.1914.58789.08203.29167.15039.59245.20508.9023.0638.3099.11393.6107.15039.9024.04557.2917.08203.5605.10938.8066.03645.2552.0638.4649.08203.6289.03645.2735.12304.4649.25976.5743.14584.1184.30534.1822.47852.1914.18229.0182.36002 0 .5332-.0547.18229-.0547.32357-.114.42383-.1778-.00912.0092-.05925.0866-.15039.2325-.09115.1549-.21419.3144-.36914.4785-.15495.1732-.3418.319-.56055.4375-.20963.1276-.44661.1686-.71094.123-.18229-.0273-.34635-.0911-.49218-.1914-.13672-.0911-.25977-.2324-.36914-.4238-.10027-.1823-.1823-.4193-.2461-.7109-.0638-.2917-.10482-.6472-.12305-1.0665-.01822-.5651-.04101-1.1028-.06835-1.6132-.01823-.51957-.11394-.99808-.28711-1.43558-.02735-.07292-.05469-.14128-.08204-.20508-.02734-.07292-.05924-.13672-.0957-.19141-.3737.09115-.79297.15039-1.25781.17774-.0638.34635-.13216.70182-.20508 1.06641-.07292.36462-.15039.72002-.23242 1.06642-.07292.3463-.15495.6699-.24609.9707-.08204.3099-.16407.5742-.2461.793-.09114.2278-.20963.4101-.35547.5468-.13672.1459-.36002.2188-.66992.2188-.18229 0-.3418-.041-.47851-.1231-.136724-.082-.268885-.1959-.396489-.3418.036458-.0273.095703-.0729.177734-.1367.072917-.0547.164063-.1732.273435-.3555.10026-.1731.20964-.4238.32813-.7519.1276-.3281.25521-.7702.38281-1.3262.04557-.2278.10482-.49217.17773-.79295.08204-.30989.16862-.64713.25977-1.01172-.36458-.20052-.5332-.4694-.50586-.80664.01823-.20963.11393-.38737.28711-.5332s.38281-.24609.62891-.30078c.11849-.47396.23698-.95247.35547-1.43555.1276-.48307.24609-.93424.35546-1.35351.10938-.42839.20964-.8112.30079-1.14844.09114-.34635.16406-.61979.21875-.82031-.16407.10937-.32813.23242-.49219.36914-.14584.11849-.30534.25521-.47852.41015-.16406.14584-.31901.30079-.46484.46485-.07292-.05469-.13216-.11393-.17774-.17774-.04557-.0638-.08203-.11849-.10937-.16406-.03646-.05469-.0638-.11393-.08203-.17773-.0638-.12761-.09571-.26433-.09571-.41016 0-.15495.10938-.3099.32813-.46484.11849-.08203.29622-.20052.5332-.35547.2461-.15495.54688-.30534.90235-.45117.35547-.14584.76562-.273442 1.23047-.382817.47395-.109375.99804-.164062 1.57226-.164062s1.03906.113932 1.39453.341797c.35547.227862.62891.505862.82031.833982.19141.32813.31446.67448.36915 1.03906.0638.36459.08203.6836.05468.95704zm-4.1289 3.75976c.31901-.15495.63346-.34635.94336-.57422.31901-.22786.60612-.5013.86132-.82031.25521-.31901.4694-.67904.64258-1.08008.17318-.41015.28255-.87044.32813-1.38086.03646-.45573.00455-.83398-.09571-1.13476-.09114-.3099-.23242-.55599-.42382-.73828-.1823-.1823-.39193-.3099-.62891-.38282-.23698-.08203-.47396-.12304-.71094-.12304-.21875 0-.44206.0319-.66992.0957-.21875.0638-.43294.14583-.64258.24609.02735.00912.05925.0319.09571.06836.01822.02735.03645.0638.05468.10938.02735.03646.04558.07747.05469.12304-.20964.88412-.37826 1.6224-.50586 2.21485s-.23242 1.07552-.31445 1.44922c-.10026.4375-.17318.78841-.21875 1.05273-.00912.03646-.01823.07292-.02735.10938 0 .03645-.00455.07747-.01367.12304.20052.04558.41016.11849.62891.21875.21875.09115.43294.23242.64258.42383zm10.53716.57422c-.2734.40104-.5833.79297-.9297 1.17578-.3463.3737-.7155.71097-1.1074 1.01177-.3828.2916-.7793.5286-1.1894.7109-.4011.1823-.793.2734-1.1758.2734-.2005 0-.4193-.0501-.6563-.1504-.2278-.0911-.4375-.2369-.62888-.4375-.1914-.2005-.34635-.4603-.46484-.77926-.10937-.31901-.14128-.70638-.0957-1.16211.03646-.3737.15039-.76563.34179-1.17578.20052-.41927.44203-.80209.72463-1.14844.2917-.34635.6152-.63346.9707-.86133.3646-.22786.7292-.3418 1.0937-.3418.3464 0 .597.08659.752.25977.1549.17318.2233.38737.2051.64258-.0274.28255-.1094.54232-.2461.77929-.1276.23698-.2826.45118-.4649.64258-.1823.19141-.3782.36459-.5879.51953-.2005.15495-.3919.29623-.5742.42383-.2005.13672-.3919.26888-.5742.39649-.1823.11849-.3418.22786-.4785.32812.0091.22787.0501.41927.123.57422.073.15495.1641.28251.2735.38281.1093.0911.2324.1595.3691.2051.1458.0364.2917.0547.4375.0547.3099 0 .6335-.0957.9707-.2871.3373-.20056.6654-.43754.9844-.71098.3281-.28255.6289-.57422.9023-.875.2826-.30078.515-.56054.6973-.7793.0638-.07291.1276-.11393.1914-.12304.0729-.01823.1276-.00912.1641.02734.0455.02735.0683.08203.0683.16406 0 .07292-.0319.15951-.0957.25977zm-3.5-2.10547c-.1094 0-.2415.05469-.3965.16406-.1458.10938-.2916.26888-.4375.47852-.1458.20052-.2825.45117-.4101.75195-.1276.29167-.2233.62891-.2871 1.01172.1093-.08203.2278-.16406.3554-.24609.1276-.09115.2553-.18685.3829-.28711.3919-.30078.6653-.56511.8203-.79297.1549-.22787.2415-.42383.2597-.58789.0183-.17318 0-.29623-.0547-.36914-.0546-.08203-.1321-.12305-.2324-.12305zm5.2599 4.48442c.2825 0 .5924-.1094.9297-.3282.3463-.22783.679-.49216.998-.79294.3281-.30078.6244-.60612.8887-.91601.2734-.31901.4785-.57422.6152-.76563.082-.11849.1595-.18685.2324-.20508.0729-.02734.1276-.01823.1641.02735.0365.04557.0501.11849.041.21875-.0091.09114-.0501.19596-.123.31445-.0638.10938-.1732.26888-.3282.47852-.1458.20052-.3235.42382-.5332.66992-.2005.23698-.4329.48307-.6972.73828-.2552.24609-.5241.47399-.8067.68359-.2825.2005-.5742.3646-.875.4922-.3008.1367-.597.2051-.8886.2051-.4011 0-.7383-.0775-1.0118-.2325-.2643-.1458-.4785-.3372-.6425-.5742-.155-.237-.2644-.4967-.3282-.77927-.0638-.29167-.0957-.57877-.0957-.86133 0-.28255.0638-.63346.1914-1.05273s.3145-.82031.5606-1.20313c.2552-.39192.5742-.72461.957-.99804.3828-.28256.834-.42383 1.3535-.42383.2917 0 .5378.10026.7383.30078.2096.20052.3099.47396.3008.82031 0 .16406-.0274.32813-.082.49219-.0547.15495-.1276.29622-.2188.42383-.0911.11849-.2005.21419-.3281.28711-.1185.07291-.2507.10937-.3965.10937-.1185 0-.2096-.04101-.2734-.12304-.0547-.09115-.0912-.19141-.1094-.30079-.0091-.11849-.0091-.23242 0-.34179.0182-.10938.0364-.18229.0547-.21875.0456-.0638.0957-.10938.1504-.13672l.1914-.0957c.0547-.02735.0957-.06836.123-.12305.0365-.05469.0547-.11393.0547-.17774 0-.0638-.0182-.11849-.0547-.16406-.0364-.04557-.0957-.06836-.1777-.06836s-.2324.06836-.4512.20508c-.2096.1276-.4284.32357-.6562.58789-.2188.25521-.4147.57878-.5879.9707-.1732.39193-.2643.84766-.2735 1.36719-.0091.30078.0319.54688.1231.73828.0911.19141.2051.3418.3418.4512s.2871.1868.4512.2324c.164.0456.3235.0684.4785.0684zm7.2286-1.70903c-.0912.34636-.2142.66992-.3692.97071-.1549.30082-.3418.56052-.5605.77932-.2097.2187-.4512.3873-.7246.5058-.2644.1276-.556.1914-.875.1914-.3737 0-.67-.082-.8887-.2461-.2096-.1549-.3691-.3509-.4785-.5878-.1003-.237-.1595-.49679-.1778-.77934-.0273-.28256-.041-.54688-.041-.79297 0-.17318.0228-.36459.0684-.57422.0364-.20964.0911-.42383.164-.64258.073-.21875.1641-.4375.2735-.65625.1185-.21875.2552-.41927.4101-.60156.0547-.15495.1368-.29167.2461-.41016.1185-.11849.2507-.21419.3965-.28711.155-.08203.319-.14127.4922-.17773.1732-.04557.3418-.06836.5059-.06836.0273 0 .0501.00456.0683.01367.0274.00912.0547.01823.0821.02734.1184.00912.2643.05469.4375.13672.1823.08203.3554.20508.5195.36914.1732.16407.319.3737.4375.62891.1185.24609.1777.54688.1777.90234 0 .07292-.0045.16407-.0136.27344-.0092.10026-.0183.18685-.0274.25977.2096-.08203.4284-.18229.6563-.30078.2278-.11849.4466-.24154.6562-.36915.2188-.13671.4193-.27343.6016-.41015s.3281-.25977.4375-.36914c.0911-.08203.1686-.12761.2324-.13672.0638-.00912.1094.00911.1367.05469.0274.04557.0319.10937.0137.1914s-.0684.17318-.1504.27344c-.0456.05469-.1641.16406-.3555.32813-.1823.16406-.401.34179-.6562.5332s-.5332.37825-.834.56055c-.3008.18229-.5879.31901-.8613.41015zm-2.3106-2.07812c-.0273.08203-.041.16862-.041.25976 0 .14584.0091.30078.0273.46485.0183.15494.0638.29622.1368.42382.0729.12761.1868.23698.3418.32813.164.08203.3873.12305.6699.12305h.1367c.0456-.00912.0911-.01823.1367-.02735.0274-.11849.0501-.2233.0684-.31445.0273-.10026.041-.18685.041-.25977.0182-.17317.0182-.35091 0-.5332s-.0547-.34635-.1094-.49219c-.0456-.15494-.1094-.27799-.1914-.36914-.0729-.10026-.1641-.15039-.2734-.15039-.1732 0-.3418.05013-.5059.15039-.1549.09115-.3008.22331-.4375.39649zm-.875 2.40625c0 .16406.0091.32812.0274.49218.0182.15495.0546.29623.1093.42382.0547.1185.1276.2188.2188.3008.0911.0729.2096.1094.3555.1094.164 0 .3144-.0365.4511-.1094.1367-.082.2598-.1823.3692-.3008.1093-.12759.205-.26887.2871-.42382.0911-.16406.1686-.33268.2324-.50586-.0638.00912-.1276.01823-.1914.02735-.0547 0-.1185 0-.1914 0-.3464 0-.6472-.10026-.9024-.30078-.2461-.20964-.4375-.47396-.5742-.79297-.0547.1914-.1002.37825-.1367.56055-.0365.18229-.0547.35546-.0547.51953zm11.4395 1.2168c0-.1914.0183-.41016.0547-.65626.0456-.24609.1003-.49674.1641-.75195.0638-.26432.1276-.51953.1914-.76562.0638-.2461.1185-.46485.1641-.65625.0547-.23698.0501-.41928-.0137-.54688s-.1732-.19141-.3281-.19141c-.0729 0-.2188.06381-.4375.19141-.2097.1276-.4421.35091-.6973.66992-.2461.3099-.4922.73373-.7383 1.27149-.237.52864-.4238 1.20315-.5605 2.02345-.1732.0911-.3373.1504-.4922.1777-.082.0182-.155.0319-.2188.041-.1823.0091-.3007-.0228-.3554-.0957-.0547-.0638-.0456-.2278.0273-.4922.0365-.1276.1003-.3326.1914-.61519.1003-.28255.196-.58789.2871-.91602.0912-.33724.1686-.66992.2324-.99804.073-.33724.1094-.62891.1094-.875 0-.17318-.0319-.29167-.0957-.35547-.0547-.0638-.1367-.0957-.2461-.0957-.082 0-.2187.04557-.4101.13671-.1914.09115-.4056.26888-.6426.53321-.237.26432-.474.63346-.7109 1.10742-.2279.46484-.4239 1.07096-.5879 1.81838v-.0274c-.0183.073-.0365.1459-.0547.2188-.0183.0638-.0319.1321-.041.2051-.0092.0729-.0228.1412-.0411.205l-.6835.3008c-.0456.0183-.1049.0319-.1778.041-.0638.0092-.1276-.0045-.1914-.041-.0547-.0273-.0957-.0911-.123-.1914-.0274-.1002-.0183-.2506.0273-.4512l.8613-3.56832c.0274-.11849.0502-.23242.0684-.34179.0182-.10026.0273-.19597.0273-.28711.0092-.10026.0046-.18229-.0136-.2461.1549-.07291.2916-.1276.4101-.16406s.2142-.0638.2871-.08203c.0912-.02734.1687-.04101.2325-.04101.2916 0 .3873.25065.2871.75195-.0365.14583-.0912.36002-.1641.64258.1732-.21875.3555-.42383.5469-.61524.2005-.20052.401-.37825.6015-.5332.2006-.15495.4011-.278.6016-.36914.2096-.09115.4147-.13672.6152-.13672.155 0 .2826.04557.3828.13672.1094.09114.1915.21419.2461.36914.0638.14583.1003.32357.1094.5332.0091.20052 0 .41016-.0273.62891.1458-.19141.3053-.38281.4785-.57422.1823-.20052.3691-.37826.5605-.5332.2006-.15495.4056-.28256.6153-.38282.2096-.10026.4192-.15039.6289-.15039.2461 0 .4329.07292.5605.21875.1367.14584.2279.33269.2735.56055.0546.22786.0683.47396.041.73828-.0183.26432-.0547.51953-.1094.76563l-.4648 1.8457c-.1003.45574-.0046.68364.2871.68364.2278 0 .4785-.1094.7519-.3282.2735-.21872.5378-.47849.793-.77927.2643-.30078.5104-.61068.7383-.92969.2278-.31901.4192-.57422.5742-.76562.0547-.0638.1094-.10026.1641-.10938.0638-.00911.1139.00456.1503.04102.0456.02734.0684.07747.0684.15039.0091.07292-.0137.16406-.0684.27344-.1822.31901-.4056.67448-.6699 1.0664-.2643.38282-.556.74284-.875 1.08011-.3099.3372-.6426.6198-.998.8476-.3555.2279-.7246.3418-1.1074.3418-.1277 0-.2553-.0136-.3829-.041-.1184-.0273-.2324-.0775-.3418-.1504-.1002-.0729-.1822-.1686-.2461-.2871-.0638-.1276-.0957-.2871-.0957-.4785zm10.4689 0c0-.1914.0182-.41016.0547-.65626.0455-.24609.1002-.49674.164-.75195.0638-.26432.1276-.51953.1914-.76562.0638-.2461.1185-.46485.1641-.65625.0547-.23698.0501-.41928-.0137-.54688s-.1732-.19141-.3281-.19141c-.0729 0-.2188.06381-.4375.19141-.2096.1276-.4421.35091-.6973.66992-.2461.3099-.4922.73373-.7383 1.27149-.2369.52864-.4238 1.20315-.5605 2.02345-.1732.0911-.3372.1504-.4922.1777-.082.0182-.1549.0319-.2187.041-.1823.0091-.3008-.0228-.3555-.0957-.0547-.0638-.0456-.2278.0273-.4922.0365-.1276.1003-.3326.1914-.61519.1003-.28255.196-.58789.2872-.91602.0911-.33724.1686-.66992.2324-.99804.0729-.33724.1094-.62891.1094-.875 0-.17318-.032-.29167-.0958-.35547-.0546-.0638-.1367-.0957-.246-.0957-.0821 0-.2188.04557-.4102.13671-.1914.09115-.4056.26888-.6426.53321-.237.26432-.4739.63346-.7109 1.10742-.2279.46484-.4238 1.07096-.5879 1.81838v-.0274c-.0182.073-.0365.1459-.0547.2188-.0182.0638-.0319.1321-.041.2051-.0091.0729-.0228.1412-.041.205l-.6836.3008c-.0456.0183-.1048.0319-.1778.041-.0638.0092-.1276-.0045-.1914-.041-.0546-.0273-.0957-.0911-.123-.1914-.0274-.1002-.0182-.2506.0273-.4512l.8614-3.56832c.0273-.11849.0501-.23242.0683-.34179.0183-.10026.0274-.19597.0274-.28711.0091-.10026.0045-.18229-.0137-.2461.1549-.07291.2917-.1276.4102-.16406.1184-.03646.2141-.0638.2871-.08203.0911-.02734.1686-.04101.2324-.04101.2916 0 .3874.25065.2871.75195-.0365.14583-.0912.36002-.1641.64258.1732-.21875.3555-.42383.5469-.61524.2005-.20052.401-.37825.6016-.5332.2005-.15495.401-.278.6015-.36914.2097-.09115.4147-.13672.6153-.13672.1549 0 .2825.04557.3828.13672.1094.09114.1914.21419.2461.36914.0638.14583.1002.32357.1093.5332.0092.20052 0 .41016-.0273.62891.1458-.19141.3053-.38281.4785-.57422.1823-.20052.3692-.37826.5606-.5332.2005-.15495.4056-.28256.6152-.38282s.4193-.15039.6289-.15039c.2461 0 .4329.07292.5606.21875.1367.14584.2278.33269.2734.56055.0547.22786.0683.47396.041.73828-.0182.26432-.0547.51953-.1094.76563l-.4648 1.8457c-.1003.45574-.0046.68364.2871.68364.2279 0 .4785-.1094.7519-.3282.2735-.21872.5378-.47849.793-.77927.2643-.30078.5104-.61068.7383-.92969s.4193-.57422.5742-.76562c.0547-.0638.1094-.10026.1641-.10938.0638-.00911.1139.00456.1504.04102.0455.02734.0683.07747.0683.15039.0091.07292-.0136.16406-.0683.27344-.1823.31901-.4056.67448-.67 1.0664-.2643.38282-.5559.74284-.875 1.08011-.3098.3372-.6425.6198-.998.8476-.3555.2279-.7246.3418-1.1074.3418-.1276 0-.2552-.0136-.3828-.041-.1185-.0273-.2325-.0775-.3418-.1504-.1003-.0729-.1823-.1686-.2461-.2871-.0638-.1276-.0957-.2871-.0957-.4785zm10.2911-2.21485c-.2735.40104-.5834.79297-.9297 1.17578-.3464.3737-.7155.71097-1.1074 1.01177-.3829.2916-.7793.5286-1.1895.7109-.401.1823-.793.2734-1.1758.2734-.2005 0-.4192-.0501-.6562-.1504-.2279-.0911-.4375-.2369-.6289-.4375-.1914-.2005-.3464-.4603-.4649-.77926-.1094-.31901-.1413-.70638-.0957-1.16211.0365-.3737.1504-.76563.3418-1.17578.2005-.41927.4421-.80209.7246-1.14844.2917-.34635.6153-.63346.9707-.86133.3646-.22786.7292-.3418 1.0938-.3418.3463 0 .597.08659.7519.25977.155.17318.2233.38737.2051.64258-.0273.28255-.1094.54232-.2461.77929-.1276.23698-.2825.45118-.4648.64258-.1823.19141-.3783.36459-.5879.51953-.2005.15495-.3919.29623-.5742.42383-.2006.13672-.392.26888-.5743.39649-.1822.11849-.3418.22786-.4785.32812.0091.22787.0502.41927.1231.57422s.164.28251.2734.38281c.1094.0911.2324.1595.3692.2051.1458.0364.2916.0547.4375.0547.3099 0 .6334-.0957.9707-.2871.3372-.20056.6653-.43754.9843-.71098.3282-.28255.6289-.57422.9024-.875.2825-.30078.515-.56054.6972-.7793.0638-.07291.1276-.11393.1914-.12304.073-.01823.1277-.00912.1641.02734.0456.02735.0684.08203.0684.16406 0 .07292-.0319.15951-.0957.25977zm-3.5-2.10547c-.1094 0-.2416.05469-.3965.16406-.1458.10938-.2917.26888-.4375.47852-.1458.20052-.2826.45117-.4102.75195-.1276.29167-.2233.62891-.2871 1.01172.1094-.08203.2279-.16406.3555-.24609.1276-.09115.2552-.18685.3828-.28711.3919-.30078.6654-.56511.8203-.79297.155-.22787.2415-.42383.2598-.58789.0182-.17318 0-.29623-.0547-.36914-.0547-.08203-.1322-.12305-.2324-.12305zm6.9961 5.29102c-.2096 0-.3919-.041-.5468-.123-.1459-.073-.2644-.1732-.3555-.3008-.0912-.1276-.1504-.2735-.1777-.4375-.0274-.1732-.0183-.3555.0273-.54691.0273-.1276.0729-.29622.1367-.50586.0638-.21875.1276-.45117.1914-.69726.0729-.25521.1367-.50586.1914-.75195.0638-.25521.1049-.48308.1231-.6836.0182-.20963.0091-.37825-.0274-.50586-.0364-.13672-.1139-.20508-.2324-.20508-.1458 0-.2962.05013-.4512.1504-.1549.09114-.3144.21874-.4785.38281-.1549.16406-.3144.35547-.4785.57422-.1549.20963-.3099.42838-.4648.65625-.0821.30989-.1504.58333-.2051.82031-.0547.22786-.1048.4375-.1504.62891-.0365.18229-.0729.34632-.1094.49222-.0364.1367-.0683.2688-.0957.3964-.0273.0912-.1094.1823-.2461.2735-.1367.082-.2825.1504-.4375.2051-.1549.0547-.2871.082-.3965.082-.1184 0-.1686-.041-.1503-.1231.0091-.0546.041-.1777.0957-.3691.0455-.1914.1048-.4147.1777-.6699.0638-.26434.1322-.54233.2051-.834s.1412-.56966.205-.83398c.0456-.20964.0958-.44206.1504-.69727.0456-.21875.1003-.47396.1641-.76563.0729-.29166.1549-.61067.2461-.95703.0638-.05468.1276-.0957.1914-.12304.0729-.03646.1458-.06381.2188-.08203.0729-.02735.1503-.04558.2324-.05469.0729 0 .1458.00456.2187.01367.0638.00911.1276.02734.1914.05469.0729.01823.1367.05013.1914.0957-.0273.0638-.0592.15495-.0957.27344-.0364.10937-.0729.22786-.1093.35547-.0365.14583-.0821.29622-.1368.45117.1185-.16406.2507-.32813.3965-.49219.155-.17318.319-.32812.4922-.46484.1823-.13672.3737-.2461.5742-.32813.2005-.09114.4056-.13672.6153-.13672.1731 0 .3281.05013.4648.15039s.2415.24154.3145.42383c.082.17318.1276.38281.1367.62891.0182.24609-.0137.51497-.0957.80664l-.1504.60156c-.0456.19141-.1048.41927-.1777.6836-.0639.2552-.1459.53776-.2461.84765-.0547.20052-.0775.37373-.0684.51953.0182.1458.1094.2188.2734.2188.1641 0 .3692-.1003.6153-.3008.2552-.20055.5104-.44209.7656-.72464s.4967-.56966.7246-.86133c.2279-.30078.401-.54231.5195-.72461.0821-.11848.1595-.19596.2325-.23242.0729-.03646.1276-.04101.164-.01367.0456.02735.0684.09115.0684.19141 0 .09114-.0365.20963-.1094.35547-.0638.1276-.1641.29622-.3008.50586-.1276.20963-.2825.43294-.4648.66992s-.3783.47851-.5879.72461c-.2096.237-.4284.4557-.6563.6562-.2278.1915-.4557.3464-.6836.4649-.2187.1276-.4283.1914-.6289.1914zm7.1739-2.95313c-.0455.28255-.0911.55143-.1367.80664-.0364.25521-.0592.46029-.0683.61524-.0091.22785.0319.39195.123.49215.0912.1003.1914.1504.3008.1504.1276 0 .2825-.0638.4648-.1914.1914-.1276.392-.28709.6016-.4785.2096-.1914.4193-.40104.6289-.6289.2096-.22787.4011-.44206.5742-.64258.1823-.20964.3327-.39193.4512-.54688.1276-.15494.2142-.2552.2598-.30078.0547-.05468.1093-.08659.164-.0957.0638-.00912.114 0 .1504.02734.0365.02735.0547.07748.0547.15039 0 .07292-.0365.16407-.1094.27344-.1093.17318-.2506.37826-.4238.61524-.1732.22786-.3646.46484-.5742.71093-.2097.2461-.433.48763-.6699.7246-.2279.237-.4603.4466-.6973.6289-.2279.1823-.4512.3281-.6699.4375-.2097.1185-.4011.1778-.5742.1778-.1276 0-.2507-.0365-.3692-.1094-.1094-.0729-.2096-.1686-.3008-.2871-.0911-.1185-.164-.2507-.2187-.3965-.0456-.1458-.0638-.2917-.0547-.4375.0091-.0638.0228-.17319.041-.32814-.3828.42834-.7702.77014-1.1621 1.02534-.3828.2461-.752.3692-1.1074.3692-.1276 0-.2643-.0319-.4102-.0957-.1458-.0638-.278-.1686-.3965-.3145-.1093-.1458-.2005-.3372-.2734-.5742-.0729-.23696-.1003-.52407-.082-.86131.0273-.52865.1321-1.02995.3144-1.50391s.4102-.88411.6836-1.23047c.2826-.35547.597-.63346.9434-.83398.3554-.20964.7109-.31445 1.0664-.31445.1549 0 .2962.04101.4238.12304.1276.07292.237.17318.3281.30078.0912.11849.1641.25065.2188.39649.0638.14583.1094.28255.1367.41015.0638-.26432.1231-.52408.1777-.77929.0547-.25521.1094-.49675.1641-.72461.0911-.33724.1869-.70183.2871-1.09375.0912-.33724.196-.72461.3145-1.16211s.2506-.89779.3964-1.38086c.0912-.07292.1778-.12761.2598-.16406.082-.03646.1595-.06381.2324-.08204.0821-.02734.1595-.04101.2325-.04101.0911 0 .1731.01367.2461.04101.0729.01823.1321.07748.1777.17774.0547.09115.0911.23242.1094.42383.0182.1914.0182.45117 0 .77929-.0183.40105-.0912.83855-.2188 1.3125-.1185.47396-.278.96615-.4785 1.47657-.2005.5013-.4329 1.00716-.6973 1.51757-.2552.50131-.5332.97982-.834 1.43555zm-.8066.17774c.0365-.17318.0684-.34636.0957-.51953.0365-.17318.0775-.35092.1231-.53321-.0183.00912-.0365.01823-.0547.02735-.0091.00911-.0228.01822-.041.02734-.1003.04557-.1687.04557-.2051 0-.0365-.05469-.0547-.13672-.0547-.24609 0-.05469-.0046-.15039-.0137-.28711-.0091-.14584-.0364-.29167-.082-.4375-.0365-.15495-.0957-.28711-.1778-.39649-.082-.11849-.1959-.17773-.3417-.17773-.2097 0-.4239.10937-.6426.32812-.2188.20964-.4239.4694-.6153.7793-.1914.30078-.3509.62435-.4785.9707-.1276.34636-.2005.65625-.2187.92969-.0183.4375.0364.75195.164.94336.1276.19139.3008.28709.5196.28709.164 0 .3418-.0638.5332-.1914.2005-.12759.3919-.28254.5742-.46483.1914-.18229.3646-.36914.5195-.56055.1641-.1914.2962-.35091.3965-.47851zm10.6602-.28711c-.1276.18229-.2916.41015-.4921.68359-.2006.26432-.4102.5332-.629.80664-.2096.26437-.4192.51037-.6289.73827-.2005.2188-.3691.3737-.5058.4649-.0912.0546-.196.1002-.3145.1367-.1185.0364-.2415.0592-.3691.0683-.1185.0091-.2324 0-.3418-.0273-.1094-.0182-.2051-.0547-.2871-.1094-.082-.0638-.1504-.1549-.2051-.2734-.0456-.1003-.0911-.2324-.1367-.3965-.0365-.1641-.0501-.3691-.041-.61524-.2188.36454-.4603.64714-.7246.84764-.2644.1914-.515.3327-.752.4238-.2734.1003-.5469.1595-.8203.1778-.1276 0-.2643-.0456-.4102-.1367-.1458-.0821-.2688-.2142-.3691-.3965-.1003-.1914-.1641-.433-.1914-.72463-.0274-.30079.0091-.65625.1094-1.06641.1276-.55599.3281-1.06185.6015-1.51758.2826-.45573.5879-.8431.916-1.16211.3282-.32812.6517-.57422.9707-.73828.3191-.16406.5834-.23698.793-.21875.2461.04557.4466.11849.6016.21875.1276.09115.2096.22787.2461.41016.0455.17317-.0274.4056-.2188.69726.1276-.02734.2324-.04557.3145-.05469.0911-.00911.1595-.01367.2051-.01367.0546 0 .0911.00456.1093.01367.0091.01823.0137.05925.0137.12305 0 .05469-.0137.15951-.041.31445-.0274.15495-.0684.36459-.1231.62891-.0546.26432-.1276.60612-.2187 1.02539-.0182.08203-.0365.15951-.0547.23242-.0091.06381-.0228.13217-.041.20508-.0091.0638-.0228.14128-.041.23242-.0183.09115-.041.20508-.0684.3418-.0091.08203-.0137.17318-.0137.27344.0092.09114.0274.17772.0547.25972.0274.0821.0684.1504.1231.2051.0638.0456.1504.0684.2597.0684.0912 0 .2097-.0547.3555-.1641.1458-.1185.3008-.2643.4649-.43748.164-.18229.3326-.37826.5058-.58789.1823-.21875.3509-.42839.5059-.62891.1549-.20052.2916-.37825.4101-.5332.1276-.15495.2188-.26888.2735-.3418.0729-.08203.1458-.1276.2187-.13672.0729-.01823.1276 0 .1641.05469.0364.05469.041.13672.0136.24609-.0182.10938-.082.23698-.1914.38282zm-4.0058.60156c.0456-.18229.1002-.39648.164-.64258.0638-.24609.1185-.48307.1641-.71094.0456-.22786.0775-.41471.0957-.56054.0274-.15495.0228-.22787-.0137-.21875-.0455.00911-.0957.02278-.1504.04101-.0455.01823-.1048.0319-.1777.04102-.0729.00911-.1458.02278-.2187.04101.0729-.14583.1139-.26432.123-.35547.0182-.10026.0228-.17773.0137-.23242-.0091-.0638-.0274-.11393-.0547-.15039-.1003-.08203-.278-.01367-.5332.20508-.2461.20964-.5332.60156-.8613 1.17578-.1368.23698-.2461.49219-.3282.76563-.082.26432-.1412.51497-.1777.75195-.0273.23698-.0319.44661-.0137.62891.0183.17317.0547.28711.1094.34184.1003.1002.2142.1503.3418.1503.1276-.0091.2552-.0455.3828-.1093.1367-.07295.2689-.16409.3965-.27347.1367-.10937.2552-.22331.3555-.3418.1093-.11849.1959-.22786.2597-.32812.073-.10026.114-.17318.1231-.21875zm8.5547-1.33984c.0365-.05469.0821-.08659.1368-.09571.0638-.01823.1139-.01367.1504.01367.0364.02735.0546.07292.0546.13672.0092.06381-.0136.15039-.0683.25977-.1823.34635-.4238.72005-.7246 1.12109-.2917.40104-.6016.7793-.9297 1.13474-.3281.3464-.6471.6335-.957.8614-.3099.2278-.5697.3418-.7793.3418-.3008 0-.5515-.0593-.752-.1778s-.36-.2643-.4785-.4375c-.1094-.1732-.1869-.36-.2324-.5605-.0456-.20966-.0593-.40107-.041-.57425.0091-.14583.041-.4056.0957-.77929.0546-.38282.1276-.82032.2187-1.3125.0912-.50131.1914-1.03451.3008-1.59961.1185-.57422.2415-1.12565.3691-1.6543-.1549.01823-.3099.03646-.4648.05469-.155.01823-.2962.02734-.4238.02734-.2917 0-.5651-.0319-.8204-.0957-.2643-.07292-.4602-.14128-.5878-.20508-.073-.03646-.1049-.08659-.0958-.15039.0092-.07292.0365-.14128.0821-.20508.0456-.07292.1048-.13216.1777-.17773.0638-.05469.1231-.08203.1777-.08203.1732.01822.3601.03645.5606.05468.2005.00912.4193.00912.6562 0 .1732-.00911.3373-.02278.4922-.04101.1641-.01823.3236-.04102.4785-.06836.1185-.4375.2325-.81576.3418-1.13477.1185-.32812.2234-.55599.3145-.68359.0273-.04557.0866-.08203.1777-.10938.1003-.03645.2051-.05924.3145-.06836.1094-.01822.2142-.01822.3144 0 .1003.00912.1732.04102.2188.09571.0456.07291.0638.25976.0547.56054-.0091.30079-.0593.6836-.1504 1.14844.3828 0 .72.02279 1.0117.06836.3008.03646.556.08203.7656.13672.2097.04557.3783.0957.5059.15039.1276.04557.2233.07747.2871.0957s.0957.06381.0957.13672c.0091.07292-.0046.15039-.041.23242-.0274.07292-.0775.13672-.1504.19141s-.155.07292-.2461.05469c-.0911-.00912-.196-.02735-.3145-.05469-.1093-.02734-.246-.05013-.4101-.06836-.155-.01823-.3418-.03646-.5606-.05469-.2187-.01823-.4739-.02734-.7656-.02734-.0547 0-.1185.00456-.1914.01367-.0638 0-.1321 0-.2051 0-.0364.14584-.0729.29167-.1093.4375-.0274.13672-.0684.28255-.1231.4375-.1185.36459-.2552.76107-.4101 1.18945-.1368.3737-.3008.80209-.4922 1.28516s-.4056.99805-.6426 1.54492c-.0547.39193-.0501.69271.0137.90235.0729.20055.1595.34635.2597.43745.1185.1003.2644.155.4375.1641.1367.0182.3008-.0273.4922-.1367.2005-.1185.4056-.2734.6153-.46485.2096-.19141.4192-.40104.6289-.62891.2187-.22786.4192-.45117.6015-.66992s.3418-.41471.4785-.58789c.1368-.18229.2325-.3099.2871-.38281zm2.6075-4.59375c-.0273.10026-.082.20052-.164.30078-.0729.09114-.1595.16862-.2598.23242-.0911.05469-.1868.09114-.2871.10937s-.1823 0-.2461-.05468c-.1914-.14584-.2917-.30078-.3008-.46485-.0091-.17317.0319-.33268.1231-.47851.0911-.15495.2051-.28256.3418-.38282.1367-.10937.2552-.17317.3554-.1914.1003-.01823.1823.00456.2461.06836.073.05468.1276.13216.1641.23242.0365.09115.0547.19596.0547.31445.0091.11849 0 .22331-.0274.31446zm-1.8867 2.91211c.0456-.05469.1322-.10027.2598-.13672.1276-.03646.2598-.06381.3965-.08204.1367-.02734.2597-.04101.3691-.04101.1185-.00912.1869-.00912.2051 0 .0091.00911-.0137.10482-.0684.28711s-.123.39648-.205.64258c-.0821.24609-.1687.5013-.2598.76562-.0912.25521-.1595.46485-.2051.62891s-.1002.35091-.164.56055c-.0639.20052-.1231.40104-.1778.60156-.0456.1914-.0775.3737-.0957.54687-.0182.17318-.0045.30534.041.39649.0456.1094.0957.1868.1504.2324.0547.0365.114.0547.1778.0547.1822 0 .4101-.1003.6835-.3008.2826-.2005.5652-.43748.8477-.71091.2917-.28255.5606-.56511.8066-.84766.2461-.29167.4284-.52409.5469-.69726.0729-.09115.1459-.15039.2188-.17774.082-.02734.1458-.02279.1914.01367.0547.03646.082.09571.082.17774.0091.08203-.0182.17773-.082.28711-.1459.25521-.3601.56054-.6426.91601-.2826.34636-.5833.6836-.9023 1.01172-.3191.31902-.6335.59242-.9434.82032-.3008.2279-.5469.3463-.7383.3555-.1549.0091-.3099-.0183-.4648-.0821-.1459-.0547-.2826-.1321-.4102-.2324-.1185-.1094-.2187-.2324-.3008-.3691-.082-.1459-.1276-.2963-.1367-.4512-.0273-.22787-.0273-.53776 0-.92969.0274-.40104.0775-.80664.1504-1.2168.0729-.41927.1641-.81575.2734-1.18945.1185-.3737.2507-.65169.3965-.83398zm7.1876 2.96679c-.0911.34636-.2142.66992-.3691.97071-.155.30082-.3418.56052-.5606.77932-.2096.2187-.4512.3873-.7246.5058-.2643.1276-.556.1914-.875.1914-.3737 0-.6699-.082-.8887-.2461-.2096-.1549-.3691-.3509-.4785-.5878-.1002-.237-.1595-.49679-.1777-.77934-.0274-.28256-.041-.54688-.041-.79297 0-.17318.0228-.36459.0683-.57422.0365-.20964.0912-.42383.1641-.64258s.1641-.4375.2734-.65625c.1185-.21875.2552-.41927.4102-.60156.0547-.15495.1367-.29167.2461-.41016.1185-.11849.2506-.21419.3965-.28711.1549-.08203.319-.14127.4921-.17773.1732-.04557.3418-.06836.5059-.06836.0274 0 .0501.00456.0684.01367.0273.00912.0547.01823.082.02734.1185.00912.2643.05469.4375.13672.1823.08203.3555.20508.5195.36914.1732.16407.319.3737.4375.62891.1185.24609.1778.54688.1778.90234 0 .07292-.0046.16407-.0137.27344-.0091.10026-.0182.18685-.0274.25977.2097-.08203.4284-.18229.6563-.30078s.4466-.24154.6562-.36915c.2188-.13671.4193-.27343.6016-.41015s.3281-.25977.4375-.36914c.0912-.08203.1686-.12761.2324-.13672.0638-.00912.1094.00911.1368.05469.0273.04557.0319.10937.0136.1914-.0182.08203-.0683.17318-.1504.27344-.0455.05469-.164.16406-.3554.32813-.1823.16406-.4011.34179-.6563.5332s-.5332.37825-.834.56055c-.3008.18229-.5879.31901-.8613.41015zm-2.3105-2.07812c-.0274.08203-.0411.16862-.0411.25976 0 .14584.0092.30078.0274.46485.0182.15494.0638.29622.1367.42382.0729.12761.1869.23698.3418.32813.1641.08203.3874.12305.6699.12305h.1367c.0456-.00912.0912-.01823.1368-.02735.0273-.11849.0501-.2233.0683-.31445.0274-.10026.041-.18685.041-.25977.0183-.17317.0183-.35091 0-.5332-.0182-.18229-.0547-.34635-.1093-.49219-.0456-.15494-.1094-.27799-.1914-.36914-.073-.10026-.1641-.15039-.2735-.15039-.1732 0-.3418.05013-.5058.15039-.155.09115-.3008.22331-.4375.39649zm-.875 2.40625c0 .16406.0091.32812.0273.49218.0182.15495.0547.29623.1094.42382.0547.1185.1276.2188.2187.3008.0912.0729.2097.1094.3555.1094.1641 0 .3144-.0365.4512-.1094.1367-.082.2597-.1823.3691-.3008.1094-.12759.2051-.26887.2871-.42382.0912-.16406.1686-.33268.2324-.50586-.0638.00912-.1276.01823-.1914.02735-.0547 0-.1185 0-.1914 0-.3463 0-.6471-.10026-.9023-.30078-.2461-.20964-.4375-.47396-.5742-.79297-.0547.1914-.1003.37825-.1368.56055-.0364.18229-.0546.35546-.0546.51953zm9.1289 2.1875c-.2096 0-.3919-.041-.5468-.123-.1459-.073-.2644-.1732-.3555-.3008-.0912-.1276-.1504-.2735-.1777-.4375-.0274-.1732-.0183-.3555.0273-.54691.0273-.1276.0729-.29622.1367-.50586.0638-.21875.1276-.45117.1914-.69726.0729-.25521.1367-.50586.1914-.75195.0638-.25521.1049-.48308.1231-.6836.0182-.20963.0091-.37825-.0274-.50586-.0364-.13672-.1139-.20508-.2324-.20508-.1458 0-.2962.05013-.4512.1504-.1549.09114-.3144.21874-.4785.38281-.1549.16406-.3144.35547-.4785.57422-.1549.20963-.3099.42838-.4648.65625-.0821.30989-.1504.58333-.2051.82031-.0547.22786-.1048.4375-.1504.62891-.0365.18229-.0729.34632-.1094.49222-.0364.1367-.0683.2688-.0957.3964-.0273.0912-.1094.1823-.2461.2735-.1367.082-.2825.1504-.4375.2051-.1549.0547-.2871.082-.3965.082-.1184 0-.1686-.041-.1503-.1231.0091-.0546.041-.1777.0957-.3691.0455-.1914.1048-.4147.1777-.6699.0638-.26434.1322-.54233.2051-.834s.1412-.56966.205-.83398c.0456-.20964.0958-.44206.1504-.69727.0456-.21875.1003-.47396.1641-.76563.0729-.29166.1549-.61067.2461-.95703.0638-.05468.1276-.0957.1914-.12304.0729-.03646.1458-.06381.2188-.08203.0729-.02735.1503-.04558.2324-.05469.0729 0 .1458.00456.2187.01367.0638.00911.1276.02734.1914.05469.0729.01823.1367.05013.1914.0957-.0273.0638-.0592.15495-.0957.27344-.0364.10937-.0729.22786-.1093.35547-.0365.14583-.0821.29622-.1368.45117.1185-.16406.2507-.32813.3965-.49219.155-.17318.319-.32812.4922-.46484.1823-.13672.3737-.2461.5742-.32813.2005-.09114.4056-.13672.6153-.13672.1731 0 .3281.05013.4648.15039s.2415.24154.3145.42383c.082.17318.1276.38281.1367.62891.0182.24609-.0137.51497-.0957.80664l-.1504.60156c-.0456.19141-.1048.41927-.1777.6836-.0639.2552-.1459.53776-.2461.84765-.0547.20052-.0775.37373-.0684.51953.0182.1458.1094.2188.2734.2188.1641 0 .3692-.1003.6153-.3008.2552-.20055.5104-.44209.7656-.72464s.4967-.56966.7246-.86133c.2279-.30078.401-.54231.5195-.72461.0821-.11848.1595-.19596.2325-.23242.0729-.03646.1276-.04101.164-.01367.0456.02735.0684.09115.0684.19141 0 .09114-.0365.20963-.1094.35547-.0638.1276-.1641.29622-.3008.50586-.1276.20963-.2825.43294-.4648.66992s-.3783.47851-.5879.72461c-.2096.237-.4284.4557-.6563.6562-.2278.1915-.4557.3464-.6836.4649-.2187.1276-.4283.1914-.6289.1914z" fill="#fff"/></svg>